<svg xmlns="http://www.w3.org/2000/svg" width="78.393" height="103.095" viewBox="0 0 78.393 103.095">
  <g id="Grupo_558" data-name="Grupo 558" transform="translate(0.5 0.5)">
    <path id="Exclusão_1" data-name="Exclusão 1" d="M36.235,102.094h-16.9c-5.546,0-10.273-1.324-13.668-3.831a13.507,13.507,0,0,1-4.143-4.886A15.473,15.473,0,0,1,0,86.427V0H58.989a18.4,18.4,0,0,1,18.4,18.4V57.865a2.8,2.8,0,0,1-4.779,1.985c-1.554-1.555-3.253-3.25-6.062-6.044a5.015,5.015,0,0,0-3.5-1.493A4.136,4.136,0,0,0,60.1,53.506l-.091.089a4.6,4.6,0,0,0,.227,6.478l2.616,2.615a1.333,1.333,0,0,1,.394.937,1.3,1.3,0,0,1-1.3,1.311A1.339,1.339,0,0,1,61,64.543l-4.828-4.829a5.131,5.131,0,0,0-3.577-1.54,3.988,3.988,0,0,0-4.057,4.063,5.112,5.112,0,0,0,1.54,3.571l5.113,5.116a1.345,1.345,0,0,1,.4.955,1.3,1.3,0,0,1-1.3,1.3,1.337,1.337,0,0,1-.951-.4L46.819,66.26a4.924,4.924,0,0,0-3.489-1.487,4.182,4.182,0,0,0-2.983,1.206l-.095.1a4.151,4.151,0,0,0-1.2,3.071,4.685,4.685,0,0,0,1.4,3.2l7.342,7.342a1.337,1.337,0,0,1,.394.939,1.29,1.29,0,0,1-1.3,1.31,1.334,1.334,0,0,1-.949-.395l-7.132-7.127-.012-.012c-.021-.019-.041-.04-.063-.058l-.08-.084-.024-.025c-.021-.024-.043-.046-.065-.068L26.294,61.9a5.09,5.09,0,0,0-3.555-1.512,4.135,4.135,0,0,0-2.958,1.187A4.632,4.632,0,0,0,20.1,68.09l23.22,23.257c.027.028.126.1.285.223,3.949,2.986,5.645,5.416,5.038,7.22C47.909,100.983,43.734,102.094,36.235,102.094ZM30.95,23.509a3.811,3.811,0,0,0-3.8,3.8V52.488a3.812,3.812,0,0,0,3.806,3.8,3.758,3.758,0,0,0,2.123-.664l18.49-12.586a3.795,3.795,0,0,0,0-6.274L33.075,24.175A3.768,3.768,0,0,0,30.95,23.509Z" transform="translate(0)" fill="#fff" stroke="rgba(0,0,0,0)" stroke-miterlimit="10" stroke-width="1"/>
  </g>
</svg>
