<?xml version="1.0" encoding="utf-8"?>
<!-- Generator: Adobe Illustrator 26.0.1, SVG Export Plug-In . SVG Version: 6.00 Build 0)  -->
<svg version="1.1" id="Camada_1" xmlns="http://www.w3.org/2000/svg" xmlns:xlink="http://www.w3.org/1999/xlink" x="0px" y="0px"
	 viewBox="0 0 500 500" style="enable-background:new 0 0 500 500;" xml:space="preserve">
<style type="text/css">
	.st0{fill:#CFCECE;}
	.st1{fill:#F4F4F4;}
	.st2{fill:#4B4093;}
	.st3{fill:#376FB6;}
	.st4{fill:#36548A;}
	.st5{fill:#F7CC7F;}
	.st6{fill:#FAE0B2;}
	.st7{fill:#E6BD84;}
	.st8{fill:#133759;}
	.st9{fill:#B28856;}
	.st10{fill:#F18661;}
	.st11{fill:#D8573F;}
	.st12{fill:#F08491;}
	.st13{clip-path:url(#SVGID_00000151545214338832508380000008053803825440732039_);}
	.st14{fill:#FCC65F;}
	.st15{fill:#F6ED82;}
	.st16{clip-path:url(#SVGID_00000004541280972673047730000009700204833979304364_);}
	.st17{fill:#FFFFFF;}
	.st18{fill:#476EB4;}
	.st19{fill:#F39C8E;}
	.st20{fill:#56BAA3;}
	.st21{fill:#B8D5F1;}
	.st22{fill:#F49A4D;}
	.st23{clip-path:url(#SVGID_00000152976884550611140960000015111016426580801420_);}
	.st24{fill:#EFEFEF;}
	.st25{fill:#F18B7F;}
	.st26{fill:#CDCCCC;}
	.st27{fill:#454545;}
	.st28{clip-path:url(#SVGID_00000096018901474067028220000011624099419463327421_);}
</style>
<g>
	<path class="st0" d="M416.7,493.2c0,0,52.6-47.5,47.5-113.7s-50.9-88.3-56-118.8s-5.1-81.5-71.3-90S219.8,247,150.2,238.5
		c-41-5-137.5,28.9-137.5,100.2s39,154.5,39,154.5H416.7z"/>
	<path class="st1" d="M44.9,491.5c0,0-66.9-91.7-0.2-157.9S26.6,205.2,89.2,160.4c71.2-50.9,157.1,22.1,203.6,69.6s97.3,29.1,144,57
		s70.1,77.1,47.8,124.6c-22.2,47.5-35.6,81.5-35.6,81.5L44.9,491.5z"/>
	<g id="OBJECT_61_">
		<g>
			<g>
				<path class="st2" d="M96.5,315.4c-3.2,0-5.8-2.6-5.8-5.8c0-3.2,2.6-5.8,5.8-5.8c3.2,0,5.8,2.6,5.8,5.8
					C102.3,312.8,99.7,315.4,96.5,315.4z M96.5,306.3c-1.8,0-3.3,1.5-3.3,3.3c0,1.8,1.5,3.3,3.3,3.3s3.3-1.5,3.3-3.3
					C99.8,307.8,98.4,306.3,96.5,306.3z"/>
			</g>
			<g>
				<path class="st2" d="M237.8,174.9c-3.2,0-5.8-2.6-5.8-5.8c0-3.2,2.6-5.8,5.8-5.8c3.2,0,5.8,2.6,5.8,5.8
					C243.5,172.3,240.9,174.9,237.8,174.9z M237.8,165.8c-1.8,0-3.3,1.5-3.3,3.3c0,1.8,1.5,3.3,3.3,3.3c1.8,0,3.3-1.5,3.3-3.3
					C241.1,167.3,239.6,165.8,237.8,165.8z"/>
			</g>
			<g>
				<path class="st2" d="M278.9,275.3c-4,0-7.3-3.3-7.3-7.3s3.3-7.3,7.3-7.3c4,0,7.3,3.3,7.3,7.3S283,275.3,278.9,275.3z
					 M278.9,263.2c-2.7,0-4.8,2.2-4.8,4.8c0,2.7,2.2,4.8,4.8,4.8s4.8-2.2,4.8-4.8C283.8,265.4,281.6,263.2,278.9,263.2z"/>
			</g>
			<g>
				<path class="st2" d="M424,290.3c-4,0-7.3-3.3-7.3-7.3c0-4,3.3-7.3,7.3-7.3s7.3,3.3,7.3,7.3C431.3,287,428,290.3,424,290.3z
					 M424,278.2c-2.7,0-4.8,2.2-4.8,4.8c0,2.7,2.2,4.8,4.8,4.8c2.7,0,4.8-2.2,4.8-4.8C428.9,280.3,426.7,278.2,424,278.2z"/>
			</g>
			<g>
				<g>
					<path class="st3" d="M422.7,493.4l-1.6-1.8c0.5-0.4,0.7-1.3,0.7-2.2c0-1-0.4-1.9-0.9-2.3c-3.8-2.9-12.7-0.5-19.2,1.3
						c-5.7,1.6-9.1,2.5-10.4,0.8c-1-1.3,0-3.1,0.3-3.7c2.2-3.9,9.8-6,18.6-8.3c11.7-3.1,25-6.7,24.7-15c-0.1-1.9-0.7-3.3-1.8-4.2
						c-3.2-2.7-10.1-1.9-15.2-1.3c-4.5,0.5-7.3,0.9-8.2-0.9c-0.7-1.5,0.6-3.2,2.2-4.8c3.7-3.8,7.4-11.2,9.6-18.9
						c2.4-8.4,2.5-15.6,0.3-19.6c-1.6-3.1-4.5-4.2-8.9-3.4c-10.2,1.8-12,13.6-13.7,24c-0.7,4.4-1.3,8.6-2.6,11.6
						c-1.6,3.7-4,5.3-7.3,4.9c-7.3-1-8.8-7.9-10-13.4c-0.7-3.4-1.4-6.5-3.1-7.4c-1-0.5-2.4-0.3-4.3,0.5c-5.9,2.5-4.3,12.9-2.8,22.8
						c0.8,5.1,1.6,10.3,1.4,14.5c-0.3,5.1-2,8.2-5.3,9.4c-7,2.7-9.8-2.9-11.9-7c-1.2-2.4-2.3-4.7-3.9-4.9c-1.2-0.2-3,0.7-5.2,2.8
						c-5.9,5.6-3.4,17,0.7,25l-2.2,1.1c-1-2.1-3.5-7.6-4.2-13.7c-0.7-6.2,0.7-11,4.1-14.3c2.9-2.7,5.2-3.8,7.3-3.5
						c2.7,0.5,4.2,3.4,5.6,6.2c2.4,4.8,4.2,7.6,8.8,5.8c5.3-2,3.8-11.8,2.4-21.3c-1.7-10.9-3.4-22.2,4.2-25.4
						c2.7-1.1,4.8-1.3,6.4-0.4c2.8,1.4,3.6,5.1,4.4,9.1c1.1,5.3,2.3,10.7,7.9,11.5c4.6,0.6,5.7-5.1,7.2-14.4
						c1.7-10.6,3.7-23.9,15.6-26c6.8-1.2,10,1.9,11.5,4.7c2.4,4.6,2.4,12.4-0.2,21.4c-2.3,8.2-6.2,15.9-10.2,20
						c-1,1-1.4,1.6-1.6,1.9c1,0.2,3.6-0.2,5.5-0.4c5.8-0.7,13.1-1.6,17.1,1.8c1.7,1.4,2.6,3.4,2.7,6c0.4,10.3-13.9,14.1-26.5,17.5
						c-7.6,2-15.4,4.1-17.1,7.1c-0.3,0.5-0.4,0.8-0.4,0.9c1.2,0.2,4.9-0.8,7.8-1.6c7.4-2,16.5-4.5,21.3-0.9c1.1,0.8,1.8,2.4,1.9,4.1
						C424.2,490.9,423.7,492.5,422.7,493.4z"/>
				</g>
				<g>
					<path class="st3" d="M381.6,493.2l-2-1.4c10.2-14.8,23.9-38.6,31.1-68.2l2.4,0.6C405.9,454.1,392,478.2,381.6,493.2z"/>
				</g>
				<g>
					
						<rect x="393.4" y="466.6" transform="matrix(0.9749 -0.2226 0.2226 0.9749 -93.9205 102.5031)" class="st3" width="28.5" height="2.4"/>
				</g>
				<g>
					
						<rect x="381.8" y="454" transform="matrix(0.9795 -0.2014 0.2014 0.9795 -86.6793 86.7696)" class="st3" width="2.4" height="30.6"/>
				</g>
				<g>
					
						<rect x="355.8" y="483.4" transform="matrix(0.8296 -0.5583 0.5583 0.8296 -211.8456 282.5658)" class="st3" width="2.4" height="10"/>
				</g>
			</g>
			<g>
				<g>
					<path class="st3" d="M81.4,493c-12,0-22.1-4.5-27.2-12c-3-4.4-3.7-9.4-1.9-13.7c1.4-3.4,8.5-2,19.8,0.5c4,0.9,8.2,1.8,11.5,2.2
						c4.7,0.6,5.4-0.2,5.4-0.2c0.1-0.1,0.1-0.5-0.4-1.4c-2.2-3.9-11.6-6.4-21.6-9.1c-15.7-4.2-33.4-8.9-32.9-21.6
						c0.1-3.1,1.2-5.6,3.2-7.3c4.9-4.2,14.2-3,21.1-2.2c2.7,0.3,6.3,0.8,7.3,0.4c-0.1-0.3-0.5-1.1-2.2-2.8
						c-5-5.1-9.8-14.6-12.7-24.9c-3.2-11.2-3.2-20.9-0.2-26.6c1.8-3.4,5.7-7.2,14-5.7c6.6,1.2,11.3,5.2,14.5,12.3
						c2.7,6,3.8,13.4,4.8,20c1.9,11.9,3.3,19.1,9.3,18.3c7.2-1,8.7-7.9,10.2-14.6c1-4.8,2-9.4,5.4-11.1c2-1,4.6-0.9,7.8,0.5
						c9.3,4,7.1,18,5.1,31.5c-0.9,6.2-1.9,12.6-1.7,17.6c0.3,5.2,1.8,8.2,4.9,9.4c6.6,2.5,9.9-1.8,13-6c2.1-2.8,4.1-5.4,6.9-5.3
						c2.4,0.1,4.8,2.1,7.8,6.5c2.9,4.4,4.1,9.5,3.4,15.2c-0.5,4.5-2.1,9.4-4.8,14.5c-4.6,8.6-10.5,14.9-10.8,15.2l-1.8-1.7
						c0.1-0.1,6-6.3,10.4-14.7c5.8-11,6.3-20.1,1.6-27.2c-2.4-3.6-4.3-5.4-5.8-5.4c0,0,0,0-0.1,0c-1.6,0-3.1,2-4.9,4.4
						c-3.2,4.2-7.5,10-15.8,6.8c-4-1.5-6.1-5.3-6.4-11.5c-0.3-5.2,0.7-11.8,1.7-18.1c1.9-12.6,3.9-25.6-3.6-28.9
						c-2.5-1.1-4.4-1.3-5.7-0.6c-2.3,1.2-3.2,5.2-4.1,9.5c-1.5,6.8-3.3,15.3-12.2,16.5c-4,0.5-6.9-1.4-8.8-5.9
						c-1.6-3.7-2.4-8.9-3.3-14.5c-2-13.1-4.3-27.9-17.3-30.2c-5.5-1-9.3,0.5-11.4,4.5c-5.8,10.9,2.5,38.3,12.5,48.6
						c1.9,2,3.5,4,2.7,5.7c-1,2-4.3,1.6-9.9,0.9c-6.4-0.8-15.2-1.8-19.2,1.6c-1.5,1.3-2.3,3.1-2.4,5.5
						c-0.4,10.7,16.3,15.2,31.1,19.1c10.9,2.9,20.4,5.4,23.1,10.2c0.9,1.7,1,3.1,0.3,4.1c-2,2.6-8.6,1.3-19.4-1.1
						c-4.2-0.9-8.6-1.9-11.9-2.3c-4.7-0.5-5.1,0.3-5.1,0.3c-1.4,3.5-0.8,7.6,1.7,11.4c4.6,6.9,14,10.9,25.1,10.9V493z"/>
				</g>
				<g>
					<path class="st3" d="M116,492.6c-0.1-0.1-9.4-10.6-20.3-28.4c-6.4-10.4-12.1-21.3-17-32.3c-6.1-13.8-10.9-27.7-14.2-41.6
						l2.4-0.6c7.5,31,21,56.9,31,73.1c10.8,17.6,20,28,20.1,28.1L116,492.6z"/>
				</g>
				<g>
					
						<rect x="69.7" y="427" transform="matrix(0.2227 -0.9749 0.9749 0.2227 -378.5586 414.8846)" class="st3" width="2.4" height="35.7"/>
				</g>
				<g>
					
						<rect x="82.6" y="445.4" transform="matrix(0.2015 -0.9795 0.9795 0.2015 -356.2712 456.3082)" class="st3" width="38.3" height="2.4"/>
				</g>
				<g>
					
						<rect x="112.9" y="477.4" transform="matrix(0.5583 -0.8296 0.8296 0.5583 -340.1575 318.2443)" class="st3" width="31.8" height="2.4"/>
				</g>
				<g>
					
						<rect x="89.3" y="471.2" transform="matrix(0.2993 -0.9542 0.9542 0.2993 -401.295 427.6039)" class="st3" width="2.4" height="31.6"/>
				</g>
			</g>
			<g>
				<g>
					<g>
						<path class="st2" d="M119.7,197.9c-0.2,0-0.4,0-0.5,0c-3.1-0.2-5.9-2.4-7.8-6.1c-1.8-3.5-2.6-8-2.3-12.7c0.3-4.7,1.8-9,4-12.2
							c2.4-3.4,5.4-5.1,8.6-4.9c3.1,0.2,5.9,2.4,7.8,6.1c1.8,3.5,2.6,8,2.3,12.7c-0.3,4.7-1.8,9-4,12.2
							C125.5,196.2,122.7,197.9,119.7,197.9z M121.2,164.5c-2.1,0-4.3,1.4-6.1,3.9c-2,2.8-3.3,6.7-3.6,11c-0.3,4.2,0.4,8.3,2,11.4
							c1.5,2.9,3.5,4.6,5.8,4.7c2.3,0.2,4.5-1.2,6.4-3.9c2-2.8,3.3-6.7,3.6-11l0,0c0.3-4.2-0.4-8.3-2-11.4c-1.5-2.9-3.5-4.6-5.8-4.7
							C121.5,164.5,121.3,164.5,121.2,164.5z"/>
					</g>
					<g>
						<path class="st2" d="M119.2,197.9l-3.7-0.3c-3.1-0.2-5.9-2.4-7.8-6.1c-1.8-3.5-2.6-8-2.3-12.7c0.3-4.7,1.8-9,4-12.2
							c2.4-3.4,5.4-5.1,8.6-4.9l3.7,0.3l-0.2,2.4l-3.7-0.3c-2.3-0.2-4.5,1.2-6.4,3.9c-2,2.8-3.3,6.7-3.6,11c-0.3,4.2,0.4,8.3,2,11.4
							c1.5,2.9,3.5,4.6,5.8,4.7l3.7,0.3L119.2,197.9z"/>
					</g>
					<g>
						<g>
							
								<rect x="108.3" y="178.7" transform="matrix(7.153327e-02 -0.9974 0.9974 7.153327e-02 -67.6227 287.2974)" class="st2" width="24.5" height="2.4"/>
						</g>
						<g>
							<path class="st2" d="M120.2,190.2c-0.1,0-0.3,0-0.4,0c-3.1-0.2-4.5-3.4-4.6-3.5l2.2-1c0,0,0.9,2,2.5,2.1
								c2.1,0.2,2.6-1.9,2.7-3.1c0.1-1.8-0.5-2.7-2.6-3.6c-2.7-1.1-4-3.2-3.8-5.9c0.1-1.4,0.6-2.7,1.3-3.7c0.9-1.2,2.2-1.8,3.7-1.7
								c2.9,0.2,4.1,2.4,4.2,2.5l-2.1,1.2c0,0-0.7-1.1-2.2-1.2c-0.6,0-1.2,0.2-1.6,0.7c-0.5,0.6-0.7,1.4-0.8,2.4
								c-0.1,1.7,0.6,2.8,2.3,3.5c2.1,0.9,4.4,2.3,4.1,6C124.8,188.1,122.9,190.2,120.2,190.2z"/>
						</g>
					</g>
				</g>
				<g>
					<g>
						<path class="st2" d="M411.9,242.6c-1,0-2.1-0.2-3.2-0.5c-3.2-0.9-6.4-3-9.1-5.8c-5.8-6.2-7.2-13.9-3.3-17.6
							c2-1.8,4.9-2.3,8.3-1.4c3.2,0.9,6.4,3,9.1,5.8l0,0c5.8,6.2,7.2,13.9,3.3,17.6C415.7,241.9,413.9,242.6,411.9,242.6z
							 M401.4,219.2c-1.4,0-2.6,0.4-3.4,1.2c-2.9,2.7-1.3,9.2,3.4,14.2c2.4,2.5,5.2,4.4,7.9,5.1c2.5,0.7,4.6,0.4,6-0.8
							c2.9-2.7,1.3-9.2-3.4-14.2l0,0c-2.4-2.5-5.2-4.4-7.9-5.1C403.1,219.4,402.2,219.2,401.4,219.2z"/>
					</g>
					<g>
						<path class="st2" d="M409.6,244.7c-3.8,0-8.4-2.2-12.2-6.3c-2.7-2.9-4.5-6.2-5.2-9.4c-0.7-3.4,0-6.3,1.9-8.2l2.3-2.1l1.7,1.8
							l-2.3,2.1c-1.3,1.2-1.8,3.3-1.2,5.9c0.6,2.8,2.2,5.7,4.6,8.3c3.3,3.5,7.4,5.5,10.5,5.5c1.4,0,2.6-0.4,3.4-1.2l2.3-2.1l1.7,1.8
							l-2.3,2.1C413.4,244.1,411.6,244.7,409.6,244.7z"/>
					</g>
					<g>
						<g>
							
								<rect x="405.5" y="219.5" transform="matrix(0.7303 -0.6832 0.6832 0.7303 -47.1991 339.7832)" class="st2" width="2.4" height="20.3"/>
						</g>
						<g>
							<path class="st2" d="M409.5,237.1c-1,0-1.8-0.2-1.8-0.3l0.8-2.3c0,0,1.6,0.5,2.5-0.3c1.2-1.1,0.3-2.4-0.4-3.1
								c-1-1-1.8-1.1-3.4-0.4c-2.3,1-4.4,0.7-6-1.1c-2-2.1-2.1-4.8-0.4-6.4c1.5-1.4,3.2-1.4,4.1-1.2l-0.6,2.4l0,0c0,0-1-0.2-1.8,0.6
								c-0.9,0.9-0.1,2.3,0.5,2.9c0.9,1,1.9,1.1,3.2,0.5c1.7-0.8,4-1.4,6.2,0.9c2,2.2,2.1,4.8,0.2,6.5
								C411.7,236.9,410.5,237.1,409.5,237.1z"/>
						</g>
					</g>
				</g>
				<g>
					<g>
						<path class="st2" d="M385.7,184.3c-3.7,0-7.4-2.1-10.4-6c-3.2-4.1-5.3-9.8-6-16.1c-0.7-6.2,0.1-12.3,2.4-17
							c2.3-4.9,5.8-7.9,9.9-8.3c4.1-0.5,8.2,1.7,11.5,6c3.2,4.1,5.3,9.8,6,16.1l0,0c0.7,6.2-0.1,12.3-2.4,17
							c-2.3,4.9-5.8,7.9-9.9,8.3C386.4,184.3,386.1,184.3,385.7,184.3z M382.6,139.3c-0.3,0-0.5,0-0.8,0c-3.2,0.4-6,2.8-8,7
							c-2,4.3-2.8,9.9-2.1,15.7c0.6,5.8,2.6,11.1,5.5,14.8c2.8,3.6,6.1,5.4,9.3,5.1c3.2-0.4,6-2.8,8-7c2-4.3,2.8-9.9,2.1-15.7l0,0
							c-0.6-5.8-2.6-11.1-5.5-14.8C388.6,141,385.6,139.3,382.6,139.3z"/>
					</g>
					<g>
						<path class="st2" d="M380.7,184.9c-3.7,0-7.4-2.1-10.4-6c-3.2-4.1-5.3-9.8-6-16.1c-0.7-6.2,0.1-12.3,2.4-17
							c2.3-4.9,5.8-7.9,9.9-8.3l5-0.6l0.3,2.4l-5,0.6c-3.2,0.4-6,2.8-8,7c-2,4.3-2.8,9.9-2.1,15.7c0.6,5.8,2.6,11.1,5.5,14.8
							c2.8,3.6,6.1,5.4,9.3,5.1l5-0.6l0.3,2.4l-5,0.6C381.4,184.9,381.1,184.9,380.7,184.9z"/>
					</g>
					<g>
						<g>
							
								<rect x="383" y="144" transform="matrix(0.994 -0.1096 0.1096 0.994 -15.2888 43.0924)" class="st2" width="2.4" height="33.2"/>
						</g>
						<g>
							<path class="st2" d="M385,173.9c-3.5,0-5.8-3.2-5.9-3.4l2-1.4l-1,0.7l1-0.7c0,0,1.8,2.6,4.3,2.3c3.4-0.4,3.4-3.8,3.2-5.2
								c-0.3-2.6-1.5-3.8-4.7-4.5c-3.7-0.8-5.8-3-6.2-6.6c-0.2-1.8,0.1-3.6,0.8-5c0.9-1.7,2.4-2.7,4.2-2.9c3.7-0.4,5.7,2,5.8,2.1
								l-1.9,1.5c0-0.1-1.3-1.5-3.6-1.2c-1,0.1-1.8,0.7-2.3,1.6c-0.5,0.9-0.7,2.2-0.6,3.6c0.3,2.5,1.6,3.9,4.3,4.5
								c3,0.6,6.1,1.9,6.6,6.6c0.5,4.4-1.6,7.5-5.4,7.9C385.5,173.9,385.2,173.9,385,173.9z"/>
						</g>
					</g>
				</g>
				<g>
					<g>
						<path class="st2" d="M188.8,176.5c-0.5,0-0.9,0-1.4-0.1c-4.8-0.6-9-4.1-11.6-10c-2.6-5.7-3.5-12.9-2.6-20.4
							c0.9-7.4,3.5-14.3,7.4-19.2c4-5.1,8.8-7.6,13.7-7c4.8,0.6,9,4.1,11.6,10c2.6,5.7,3.5,12.9,2.6,20.4
							c-0.9,7.4-3.5,14.3-7.4,19.2C197.5,174,193.2,176.5,188.8,176.5z M192.8,122.2c-3.6,0-7.3,2.1-10.4,6.1
							c-3.6,4.6-6,10.9-6.8,17.9s0,13.8,2.4,19.1c2.3,5.1,5.8,8.1,9.7,8.6c3.9,0.5,8-1.7,11.5-6.1c3.6-4.6,6-10.9,6.8-17.9
							c0.8-7,0-13.8-2.4-19.1c-2.3-5.1-5.8-8.1-9.7-8.6C193.5,122.3,193.2,122.2,192.8,122.2z"/>
					</g>
					<g>
						<path class="st2" d="M194.8,177.2c-0.5,0-0.9,0-1.4-0.1l-6-0.7l0.3-2.4l6,0.7c3.9,0.5,8-1.7,11.5-6.1c3.6-4.6,6-10.9,6.8-17.9
							c0.8-7,0-13.8-2.4-19.1c-2.3-5.1-5.8-8.1-9.7-8.6l-6-0.7l0.3-2.4l6,0.7c4.8,0.6,9,4.1,11.6,10c2.6,5.7,3.5,12.9,2.6,20.4
							c-0.9,7.4-3.5,14.3-7.4,19.2C203.5,174.8,199.2,177.2,194.8,177.2z"/>
					</g>
					<g>
						<g>
							
								<rect x="170.8" y="146.9" transform="matrix(0.1188 -0.9929 0.9929 0.1188 20.9982 319.9555)" class="st2" width="39.9" height="2.4"/>
						</g>
						<g>
							<path class="st2" d="M189.7,164c-0.3,0-0.5,0-0.8,0c-4.4-0.5-6.8-4.2-6.2-9.3c0.6-5.4,4.3-6.9,7.8-7.6c3.3-0.7,5-2.5,5.4-5.6
								c0.2-1.6,0-3.3-0.7-4.5c-0.6-1.2-1.6-1.9-2.9-2.1c-3-0.4-4.6,1.5-4.6,1.5l-1.9-1.6c0.1-0.1,2.5-2.9,6.8-2.4
								c2.1,0.3,3.8,1.5,4.8,3.4c0.8,1.6,1.2,3.7,0.9,5.9c-0.5,4.2-3,6.8-7.3,7.7c-4,0.8-5.5,2.3-5.9,5.5c-0.5,3.8,1.1,6.2,4,6.6
								c3.1,0.4,5.4-2.8,5.4-2.8l2,1.4C196.4,160.2,193.7,164,189.7,164z"/>
						</g>
					</g>
				</g>
				<g>
					<g>
						<path class="st2" d="M284.8,154c-0.9,0-1.9-0.1-2.9-0.2c-3.9-0.5-7.5-1.8-10.1-3.9c-2.8-2.2-4.1-4.8-3.8-7.5
							c0.6-5.4,7.7-8.8,16.1-7.8l0,0c3.9,0.5,7.5,1.8,10.1,3.9c2.8,2.2,4.1,4.8,3.8,7.5C297.5,150.8,291.9,154,284.8,154z
							 M281.4,136.9c-5.8,0-10.5,2.4-10.9,5.8c-0.2,1.8,0.8,3.7,2.9,5.3c2.2,1.8,5.4,2.9,8.8,3.4c6.8,0.8,13-1.8,13.4-5.7
							c0.2-1.8-0.8-3.7-2.9-5.3c-2.2-1.8-5.4-2.9-8.8-3.4C283.1,137,282.2,136.9,281.4,136.9z"/>
					</g>
					<g>
						<path class="st2" d="M284.4,157c-0.9,0-1.9-0.1-2.8-0.2c-3.9-0.5-7.5-1.8-10.1-3.9c-2.8-2.2-4.1-4.8-3.8-7.5l0.4-3.1l2.4,0.3
							l-0.4,3.1c-0.2,1.8,0.8,3.7,2.9,5.3c2.2,1.8,5.4,2.9,8.8,3.4c3.5,0.4,6.8,0,9.4-1.2c2.4-1.1,3.8-2.7,4-4.5l0.4-3.1l2.4,0.3
							l-0.4,3.1c-0.3,2.7-2.3,5-5.4,6.4C290,156.5,287.3,157,284.4,157z"/>
					</g>
					<g>
						<g>
							
								<rect x="281.8" y="134" transform="matrix(0.1183 -0.993 0.993 0.1183 106.3734 408.2078)" class="st2" width="2.4" height="20.3"/>
						</g>
						<g>
							<path class="st2" d="M288.5,149.1l-0.9-2.3l0.4,1.1l-0.5-1.1c0,0,1.5-0.6,1.7-1.8c0.1-0.6-0.1-1-0.4-1.4
								c-0.4-0.4-1-0.7-1.8-0.8c-1.4-0.2-2.1,0.3-2.8,1.9c-1.1,2.3-2.9,3.3-5.3,3c-2.8-0.3-4.7-2.3-4.4-4.6c0.2-2,1.6-3.2,2.3-3.5
								l1.1,2.2l0,0c0,0-0.9,0.5-1,1.6c-0.2,1.3,1.4,1.8,2.3,1.9c1.3,0.2,2.2-0.3,2.8-1.7c0.8-1.7,2.2-3.7,5.3-3.3
								c1.4,0.2,2.5,0.7,3.3,1.5c0.9,0.9,1.3,2.1,1.1,3.4C291.4,147.9,288.6,149,288.5,149.1z"/>
						</g>
					</g>
				</g>
				<g>
					<g>
						<path class="st2" d="M83.7,258.5c-1.6,0-3.3-0.4-5-1.1c-3.6-1.5-7.1-4.4-9.9-8.2c-2.8-3.8-4.5-8-4.8-11.9
							c-0.3-4.1,0.9-7.4,3.4-9.3c2.6-1.9,6.1-2,9.9-0.4c3.6,1.5,7.1,4.4,9.9,8.2c2.8,3.8,4.5,8,4.8,11.9c0.3,4.1-0.9,7.4-3.4,9.3
							C87.2,258,85.5,258.5,83.7,258.5z M72.3,228.9c-1.3,0-2.5,0.3-3.4,1c-1.8,1.3-2.7,3.9-2.4,7.1c0.3,3.5,1.8,7.3,4.3,10.7
							c2.5,3.4,5.6,6.1,8.8,7.4c3,1.3,5.7,1.2,7.5-0.1c1.8-1.3,2.7-3.9,2.4-7.1c-0.3-3.5-1.8-7.3-4.3-10.7c-2.5-3.4-5.6-6.1-8.8-7.4
							C74.9,229.2,73.6,228.9,72.3,228.9z"/>
					</g>
					<g>
						<path class="st2" d="M80.7,260.6c-1.6,0-3.3-0.4-5-1.1c-3.6-1.5-7.1-4.4-9.9-8.2c-2.8-3.8-4.5-8-4.8-11.9
							c-0.3-4.1,0.9-7.4,3.4-9.3l3-2.2l1.4,2l-3,2.2c-1.8,1.3-2.7,3.9-2.4,7.1c0.3,3.5,1.8,7.3,4.3,10.7c2.5,3.4,5.6,6.1,8.8,7.4
							c3,1.3,5.7,1.2,7.5-0.1l3-2.2l1.4,2l-3,2.2C84.2,260.1,82.5,260.6,80.7,260.6z"/>
					</g>
					<g>
						<g>
							
								<rect x="76.8" y="230.2" transform="matrix(0.8089 -0.5879 0.5879 0.8089 -127.6215 92.1968)" class="st2" width="2.4" height="24.5"/>
						</g>
						<g>
							<path class="st2" d="M81.1,251.6c-1.5,0-2.8-0.6-2.9-0.6l1.1-2.2l-0.5,1.1l0.5-1.1c0,0,2,0.9,3.3,0c0.6-0.5,0.9-1,1-1.7
								c0-0.7-0.3-1.6-0.9-2.4c-1-1.4-2.1-1.7-4.3-1c-2.8,0.9-5.1,0.1-6.7-2.1c-1.9-2.7-1.8-5.8,0.4-7.3c2.4-1.7,4.7-0.8,4.8-0.8
								l-0.9,2.3c0,0-1.2-0.4-2.5,0.5c-1.4,1-0.5,3,0.1,3.9c1,1.4,2.2,1.8,4,1.2c2.1-0.7,4.9-1.1,7,1.9c0.9,1.3,1.4,2.7,1.4,3.9
								c-0.1,1.4-0.7,2.7-2,3.6C83.1,251.4,82.1,251.6,81.1,251.6z"/>
						</g>
					</g>
				</g>
				<g>
					<path class="st2" d="M438.8,218c-2.4,0-4.4-2-4.4-4.4c0-2.4,2-4.4,4.4-4.4c2.4,0,4.4,2,4.4,4.4C443.1,216,441.2,218,438.8,218z
						 M438.8,211.7c-1.1,0-1.9,0.9-1.9,1.9c0,1.1,0.9,1.9,1.9,1.9c1.1,0,1.9-0.9,1.9-1.9C440.7,212.5,439.8,211.7,438.8,211.7z"/>
				</g>
				<g>
					<path class="st2" d="M157.4,217.9c-0.6,0-1.2-0.1-1.8-0.4c-1.1-0.5-1.9-1.3-2.3-2.4c-0.4-1.1-0.4-2.3,0.1-3.3
						c0.5-1.1,1.3-1.9,2.4-2.3c1.1-0.4,2.3-0.4,3.3,0.1c1.1,0.5,1.9,1.3,2.3,2.4c0.4,1.1,0.4,2.3-0.1,3.3l0,0
						c-0.5,1.1-1.3,1.9-2.4,2.3C158.4,217.8,157.9,217.9,157.4,217.9z M157.4,211.6c-0.2,0-0.5,0-0.7,0.1c-0.5,0.2-0.9,0.5-1.1,1
						c-0.2,0.5-0.2,1,0,1.5c0.2,0.5,0.5,0.9,1,1.1c0.5,0.2,1,0.2,1.5,0c0.5-0.2,0.9-0.5,1.1-1l0,0c0.2-0.5,0.2-1,0-1.5
						c-0.2-0.5-0.5-0.9-1-1.1C157.9,211.6,157.6,211.6,157.4,211.6z"/>
				</g>
				<g>
					<path class="st2" d="M320.4,184.2c-0.5,0-1-0.1-1.4-0.3c-1-0.4-1.7-1.1-2.1-2c-0.4-0.9-0.4-2,0-2.9c0.4-1,1.1-1.7,2-2.1
						c1.9-0.8,4.2,0.1,5,2l0,0c0.8,1.9-0.1,4.2-2,5C321.5,184.1,321,184.2,320.4,184.2z M320.4,179c-0.2,0-0.4,0-0.5,0.1
						c-0.3,0.1-0.6,0.4-0.7,0.8c-0.1,0.3-0.1,0.7,0,1.1c0.1,0.3,0.4,0.6,0.8,0.7c0.3,0.1,0.7,0.1,1.1,0c0.7-0.3,1-1.1,0.7-1.8
						C321.5,179.3,321,179,320.4,179z"/>
				</g>
				<g>
					<path class="st2" d="M141.4,148.2c-0.7,0-1.5-0.2-2.2-0.5c-1.3-0.6-2.3-1.7-2.9-3c-0.5-1.4-0.5-2.8,0.1-4.2
						c0.6-1.3,1.7-2.3,3-2.9c1.4-0.5,2.8-0.5,4.2,0.1c1.3,0.6,2.3,1.7,2.9,3c0.5,1.4,0.5,2.8-0.1,4.2c-0.6,1.3-1.7,2.3-3,2.9
						C142.8,148.1,142.1,148.2,141.4,148.2z M141.4,139.8c-0.4,0-0.7,0.1-1.1,0.2c-0.7,0.3-1.3,0.8-1.7,1.6c-0.7,1.5,0,3.3,1.5,3.9
						c0.7,0.3,1.5,0.3,2.3,0.1c0.7-0.3,1.3-0.8,1.7-1.6c0.7-1.5,0-3.3-1.5-3.9C142.2,139.9,141.8,139.8,141.4,139.8z"/>
				</g>
				<g>
					<path class="st2" d="M363.7,243.7c-1.8,0-3.6-1.1-4.3-2.8c-1-2.4,0.1-5.2,2.5-6.2c1.2-0.5,2.4-0.5,3.6-0.1
						c1.2,0.5,2.1,1.4,2.6,2.5c1,2.4-0.1,5.2-2.5,6.2C364.9,243.6,364.3,243.7,363.7,243.7z M363.7,236.8c-0.3,0-0.6,0.1-0.9,0.2
						c-1.1,0.5-1.7,1.8-1.2,3c0.5,1.1,1.8,1.7,3,1.2c1.1-0.5,1.7-1.8,1.2-3c-0.2-0.6-0.7-1-1.2-1.2
						C364.3,236.8,364,236.8,363.7,236.8z"/>
				</g>
			</g>
		</g>
		<g>
			<path class="st4" d="M465.9,500.7H14.2v-1.9c0-5.1,4.1-9.2,9.2-9.2h433.3c5.1,0,9.2,4.1,9.2,9.2V500.7z"/>
			<g>
				<path class="st5" d="M341.8,440.3l16.8,16.8c0,0-2.7,2.2-39.1-11.1c-36.4-13.3-58.9-11.3-81.2,0c0,0,22.3-23.7,62.5-13.8
					C317.8,436.3,331.6,438.8,341.8,440.3z"/>
				<path class="st6" d="M301,432.2c-40.2-9.9-62.5,13.8-62.5,13.8v-5.8c0.9-8.7,6.2-24.6,32.5-30.1c36.9-7.7,59.4,13.1,74.3,8.8
					l18.4,23.4c0,0-7.6-0.1-21.9-2.1C331.6,438.8,317.8,436.3,301,432.2z"/>
				<path class="st7" d="M374.4,482.4l-101.8-12.5l-7.2-0.9c0,0-5.1,14.3-26.6,14.3c-21.5,0-27.2-14.3-27.2-14.3l-109,13.4
					l15.7-25.3c0,0,0.4,0.3,2.7,0c4-0.5,13.5-2.8,36.3-11.1c36.4-13.3,58.9-11.3,81.2,0c22.3-11.3,44.8-13.3,81.2,0
					c22.8,8.3,32.3,10.6,36.3,11.1c2.4,0.3,2.7,0,2.7,0L374.4,482.4z"/>
				<path class="st6" d="M238.4,440.2c0,3.4,0,5.8,0,5.8c-22.3-11.3-44.8-13.3-81.2,0c-36.4,13.3-39,11.1-39,11.1l21.5-21.5
					c0,0,9.5-2.1,38.6-13.2C207.9,411.1,238.4,440.2,238.4,440.2z"/>
				<path class="st8" d="M211.5,469c0,0,10.2-9.4,26.9-9.4c16.6,0,26.9,9.4,26.9,9.4s-4.4,14.6-27.5,14.6
					C223.7,483.6,214.6,476.4,211.5,469z"/>
				<path class="st4" d="M378.3,482.9c2.1,0.3,3.6,2.2,3.3,4.2c-0.3,2.1-2.2,3.5-4.2,3.3l-105.8-13l-2.3-0.3
					c-4.2,5.7-13.2,13.8-30.6,13.8c-17.6,0-26.8-8.1-31-13.8L99.4,490.4c-2.1,0.3-4-1.2-4.2-3.3c0-0.2,0-0.3,0-0.5
					c0-1.9,1.4-3.5,3.3-3.8l4-0.5l109-13.4c0,0,5.6,14.4,27.2,14.4c21.5,0,26.6-14.4,26.6-14.4l7.2,0.9l101.8,12.5L378.3,482.9z"/>
				<g>
					<path class="st9" d="M131.1,462.4c7-2.8,14.2-5.4,21.3-7.8c3.6-1.3,7.2-2.4,10.8-3.6c3.6-1.2,7.2-2.4,10.9-3.3
						c1.9-0.5,3.7-0.8,5.6-1.1c1.9-0.2,3.8-0.6,5.7-0.7l2.9-0.2l2.9-0.1c1.9-0.1,3.8,0,5.7,0.1c7.6,0.4,15.2,1.6,22.4,3.9
						c-3.7-0.9-7.4-1.5-11.2-1.9c-3.7-0.5-7.5-0.7-11.3-0.8c-7.5-0.1-15.1,0.5-22.3,2.4c-3.6,0.9-7.2,2.1-10.8,3.2l-10.8,3.4
						L131.1,462.4z"/>
					<path class="st9" d="M157.2,462.4c3.7-1.9,7.7-3.2,11.7-4.4c4-1.1,8.1-2,12.2-2.6c4.1-0.5,8.3-0.8,12.5-0.6
						c4.2,0.2,8.4,0.9,12.3,2.3c-4.2-0.2-8.2-0.1-12.3,0.1c-4.1,0.3-8.1,0.7-12.1,1.2c-4,0.5-8.1,1.2-12.1,1.9L157.2,462.4z"/>
					<path class="st9" d="M245.9,454.2c6.8-3.7,14.4-5.6,22.1-6.4c3.8-0.4,7.7-0.4,11.6-0.3c3.9,0.3,7.7,0.8,11.5,1.5
						c7.5,1.5,15,3.5,22.2,6.1c7.2,2.6,14.2,5.8,21.8,7.2c-3.8-0.4-7.6-1.3-11.3-2.4c-3.7-1.2-7.3-2.5-10.9-3.7
						c-7.2-2.4-14.6-4.4-22.1-5.8c-3.7-0.8-7.5-1.3-11.3-1.6c-3.8-0.2-7.6-0.2-11.4,0c-3.8,0.3-7.6,0.8-11.3,1.7
						C253,451.5,249.4,452.6,245.9,454.2z"/>
					<path class="st9" d="M290.4,457.1c5.8,0.8,11.5,2.1,17.1,3.7c2.8,0.8,5.6,1.7,8.4,2.7c2.8,1,5.5,2,8.3,2.7
						c5.5,1.6,11.3,2.5,17.1,3c2.9,0.2,5.8,0.4,8.7,0.3c2.9,0,5.8-0.2,8.7-0.4c-5.7,1.2-11.6,1.5-17.5,1.3
						c-5.9-0.2-11.7-1.2-17.4-2.7c-2.8-0.8-5.6-1.9-8.3-2.9c-2.7-1-5.5-1.9-8.2-2.8c-2.8-0.9-5.5-1.7-8.4-2.5
						C296.1,458.5,293.3,457.8,290.4,457.1z"/>
					<path class="st9" d="M257.4,459.4c1.5-1.1,3.3-1.7,5.1-2.3c1.8-0.6,3.6-0.9,5.4-1.3c3.6-0.6,7.3-0.9,11.1-0.7
						c-1.8,0.5-3.6,0.9-5.4,1.2c-1.8,0.4-3.6,0.7-5.4,1l-5.4,0.9C261,458.6,259.2,458.8,257.4,459.4z"/>
					<path class="st9" d="M106.3,476.4c4.8-2,9.9-3.4,15-4.5c5.1-1.1,10.3-1.9,15.5-1.9c-5.1,1.3-10.1,2.3-15.2,3.4
						C116.5,474.4,111.4,475.5,106.3,476.4z"/>
				</g>
				<path class="st10" d="M193.3,480.3c-4.3-7.3-5.2-16.5-2.6-24.6c-6.5,0.7-12.9,1.4-19.4,2.1c-2.6,8.1-1.6,17.2,2.6,24.6
					c2.1-2.3,4.4-4.8,6.9-7.4C184.8,476.9,188.9,478.6,193.3,480.3z"/>
			</g>
			<g>
				<path class="st11" d="M325.8,393.9l3,0.5c5.1,0.9,10.1-1.8,12-6.5l6.2-16.8l-27.9-1.5l-2.1,11.6
					C315.9,387.1,319.8,392.8,325.8,393.9z"/>
				<path class="st11" d="M254.9,383.1l3,0.5c5.1,0.9,10.1-1.8,12-6.5l5.6-13.4l-27.2-5l-2.1,11.6
					C245.1,376.4,249,382.1,254.9,383.1z"/>
				<path class="st11" d="M232.6,299.3c0,0-20,16-26.8,11.8c-6.8-4.2,3.4,11.5,20.8,2.2C244.1,303.9,232.6,299.3,232.6,299.3z"/>
				<path class="st12" d="M365.6,329c-0.7-8.8-4-17.3-9.2-25l14.2-9.2c1.5-0.7,1.4-2.8,0-3.6c-9.4-4.8-21.4-2.6-27.1-1.2
					c-10.1-8.3-23.1-14.5-37.8-17.2c-38.4-7-74,12.2-79.6,42.9c-2.8,15.5,2.5,31,13.5,43.4l-3.2,17.4c-0.5,2.5,1.2,4.9,3.7,5.4
					l14.1,2.6c2.2,0.4,4.3-0.8,5.1-2.8l2.3-5.6c7.2,3.6,15.1,6.4,23.7,7.9c8,1.5,15.9,1.8,23.4,1.1c-0.2,5.4,3.5,10.2,8.9,11.2
					l3,0.5c5.1,0.9,10.1-1.8,12-6.5l5.1-13.8c8.7-4.7,15.8-11.2,20.8-18.9c7-0.2,17.1-1.3,19.4-6.4c3.4-7.4,3.6-18.6,3.7-20
					L365.6,329z"/>
				<path class="st11" d="M342.7,317.6c-0.4,2.2,1.1,4.3,3.3,4.7c2.2,0.4,4.3-1.1,4.7-3.3c0.4-2.2-1.1-4.3-3.3-4.7
					C345.2,313.9,343.1,315.4,342.7,317.6z"/>
				<g>
					<path class="st11" d="M275.9,284.6c0.4,0.1,0.7,0,1.1-0.1c7.7-2.4,17.2-2.8,26.8-1c9.5,1.7,18.3,5.4,24.6,10.4
						c1,0.8,2.5,0.6,3.3-0.4c0.8-1,0.6-2.5-0.4-3.3c-6.9-5.4-16.4-9.4-26.7-11.3c-10.3-1.9-20.6-1.5-29,1.1
						c-1.2,0.4-1.9,1.7-1.5,2.9C274.3,283.8,275.1,284.4,275.9,284.6z"/>
				</g>
				<g>
					<defs>
						<path id="SVGID_1_" d="M268.1,284.5c10.4-3.2,23.7-5.5,37.5-3c13.7,2.5,25.2,10.3,33.8,16.9l9.6-52.4l-71.4-13L268.1,284.5z"
							/>
					</defs>
					<clipPath id="SVGID_00000117636069449052476710000013491371930745479556_">
						<use xlink:href="#SVGID_1_"  style="overflow:visible;"/>
					</clipPath>
					<g style="clip-path:url(#SVGID_00000117636069449052476710000013491371930745479556_);">
						
							<ellipse transform="matrix(0.4438 -0.8961 0.8961 0.4438 -73.0157 424.7129)" class="st14" cx="305.6" cy="271.2" rx="24.6" ry="24.6"/>
						<path class="st15" d="M284.8,267.4c-0.8,4.5-0.2,8.9,1.7,12.8c0.3,0.5,0.5,1.1,0.8,1.6c0.6,1,1.3,2,2,2.9
							c0.3,0.4,0.7,0.8,1.1,1.2c0.8,0.8,1.6,1.5,2.5,2.2c0.4,0.3,0.8,0.6,1.3,0.9c1.7,1.1,3.7,2,5.7,2.6c0.5,0.2,1.1,0.3,1.7,0.4
							c0.1,0,0.2,0,0.3,0.1c11.5,2.1,22.5-5.5,24.6-17c0.7-3.9,0.3-7.8-1-11.3c-0.2-0.5-0.4-1.1-0.7-1.6c-0.9-1.9-2.1-3.7-3.5-5.2
							c-0.3-0.4-0.7-0.7-1.1-1.1c-0.8-0.7-1.6-1.4-2.6-2.1c-0.5-0.3-0.9-0.6-1.4-0.9c-1-0.6-2.1-1.1-3.2-1.5
							c-0.5-0.2-1.1-0.4-1.7-0.5c-0.6-0.2-1.2-0.3-1.8-0.4C297.9,248.3,286.9,255.9,284.8,267.4z"/>
						<g>
							<g>
								
									<rect x="288.3" y="270.1" transform="matrix(0.158 -0.9874 0.9874 0.158 -10.488 529.9932)" class="st14" width="34.4" height="2"/>
							</g>
							<g>
								<path class="st14" d="M303.2,284.6c0.1,0,0.1,0,0.2,0c3.8,0.6,6.6-2.9,6.7-3l-1.6-1.2c0,0-2.1,2.7-4.8,2.3
									c-1.3-0.2-2.2-0.8-2.8-1.8c-0.6-1-0.7-2.4-0.5-4c0.4-2.8,1.8-4,5.3-4.6c3.8-0.6,5.9-2.7,6.5-6.3c0.3-1.8,0.1-3.6-0.6-5
									c-0.8-1.7-2.2-2.8-4-3.1c-3.6-0.6-5.8,1.7-5.9,1.8l1.5,1.3c0.1-0.1,1.5-1.6,4.1-1.2c1.1,0.2,2,0.8,2.5,1.9
									c0.5,1.1,0.6,2.5,0.4,3.9c-0.4,2.7-2,4.2-4.9,4.6c-3,0.5-6.2,1.6-7,6.3c-0.3,2.1-0.1,3.9,0.7,5.3
									C300,283.3,301.4,284.2,303.2,284.6z"/>
							</g>
						</g>
						<g>
							<defs>
								
									<ellipse id="SVGID_00000081606527791510407220000000209043028089825689_" transform="matrix(0.4438 -0.8961 0.8961 0.4438 -73.0157 424.7129)" cx="305.6" cy="271.2" rx="24.6" ry="24.6"/>
							</defs>
							<clipPath id="SVGID_00000005950388341684825500000004601424633615185844_">
								<use xlink:href="#SVGID_00000081606527791510407220000000209043028089825689_"  style="overflow:visible;"/>
							</clipPath>
							<g style="clip-path:url(#SVGID_00000005950388341684825500000004601424633615185844_);">
								<path class="st15" d="M321.2,256.9c1.4,1.5,2.6,3.3,3.5,5.2c0.2,0.5,0.5,1,0.7,1.6l8.1-9.6l-5.8-4.9L321.2,256.9z"/>
								<path class="st15" d="M286.5,298l5.8,4.9l9.2-10.9c-0.6-0.1-1.1-0.2-1.7-0.4c-2.1-0.6-4-1.5-5.7-2.6L286.5,298z"/>
								<path class="st17" d="M292.9,288c2,1.5,4.4,2.7,7,3.5l24.8-29.4c-1.1-2.4-2.7-4.5-4.6-6.3L292.9,288z"/>
								<path class="st15" d="M312.9,251.4c1.1,0.4,2.2,0.9,3.2,1.5c0.5,0.3,0.9,0.6,1.4,0.9l6.1-7.3l-3.9-3.3L312.9,251.4z"/>
								<path class="st15" d="M278.6,292l3.9,3.3l7.9-9.4c-0.4-0.4-0.8-0.8-1.1-1.2c-0.8-0.9-1.4-1.9-2-2.9L278.6,292z"/>
								<path class="st17" d="M286.5,280.1c0.8,1.6,1.7,3.1,2.9,4.5l26.8-31.8c-1.5-0.9-3.2-1.6-4.9-2L286.5,280.1z"/>
							</g>
						</g>
					</g>
				</g>
			</g>
			<g>
				<path class="st6" d="M224,199.2h-91c-4.1,0-7.4,3.3-7.4,7.4V243v11.9v0c0,4.3,3.6,7.7,7.8,7.6l6-0.2H224c4.1,0,7.4-3.3,7.4-7.4
					v-48.2C231.3,202.5,228,199.2,224,199.2z"/>
				<g>
					<g>
						<g>
							<path class="st8" d="M169.2,236.4c0-1.2,1-2.2,2.2-2.2c1.2,0,2.2,1,2.2,2.2c0,1.2-1,2.2-2.2,2.2
								C170.2,238.6,169.2,237.6,169.2,236.4z M170.3,236.4c0,0.6,0.5,1.1,1.1,1.1c0.6,0,1.1-0.5,1.1-1.1s-0.5-1.1-1.1-1.1
								C170.8,235.3,170.3,235.8,170.3,236.4z"/>
						</g>
						<g>
							<path class="st8" d="M161.4,241.5c0-1.2,1-2.2,2.2-2.2c1.2,0,2.2,1,2.2,2.2c0,1.2-1,2.2-2.2,2.2
								C162.4,243.7,161.4,242.7,161.4,241.5z M162.5,241.5c0,0.6,0.5,1.1,1.1,1.1c0.6,0,1.1-0.5,1.1-1.1c0-0.6-0.5-1.1-1.1-1.1
								C163,240.4,162.5,240.9,162.5,241.5z"/>
						</g>
						<g>
							<path class="st8" d="M153.6,239.8c0-1.2,1-2.2,2.2-2.2c1.2,0,2.2,1,2.2,2.2c0,1.2-1,2.2-2.2,2.2
								C154.6,242,153.6,241,153.6,239.8z M154.7,239.8c0,0.6,0.5,1.1,1.1,1.1c0.6,0,1.1-0.5,1.1-1.1c0-0.6-0.5-1.1-1.1-1.1
								C155.2,238.7,154.7,239.2,154.7,239.8z"/>
						</g>
						<g>
							<path class="st8" d="M145.8,246.1c0-1.2,1-2.2,2.2-2.2c1.2,0,2.2,1,2.2,2.2c0,1.2-1,2.2-2.2,2.2
								C146.8,248.2,145.8,247.3,145.8,246.1z M146.9,246.1c0,0.6,0.5,1.1,1.1,1.1s1.1-0.5,1.1-1.1s-0.5-1.1-1.1-1.1
								S146.9,245.5,146.9,246.1z"/>
						</g>
						<g>
							
								<rect x="141.4" y="247.6" transform="matrix(0.8869 -0.4619 0.4619 0.8869 -98.3061 94.6295)" class="st8" width="5.5" height="1.1"/>
						</g>
						<g>
							
								<rect x="148.6" y="242.4" transform="matrix(0.781 -0.6245 0.6245 0.781 -118.4583 148.0738)" class="st8" width="6.7" height="1.1"/>
						</g>
						<g>
							
								<rect x="159.2" y="238.3" transform="matrix(0.2063 -0.9785 0.9785 0.2063 -108.723 347.2722)" class="st8" width="1.1" height="4.7"/>
						</g>
						<g>
							
								<rect x="164.5" y="238.4" transform="matrix(0.8377 -0.5461 0.5461 0.8377 -103.3026 130.252)" class="st8" width="6" height="1.1"/>
						</g>
						<g>
							<path class="st8" d="M171,254h0.7v1H171V254z M171,252h0.7v1.4H171V252z M171,250h0.7v1.4H171V250z M171,248h0.7v1.4H171V248
								z M171,246h0.7v1.4H171V246z M171,244h0.7v1.4H171V244z M171,242h0.7v1.4H171V242z M171,240h0.7v1.4H171V240z M171,238h0.7
								v1.4H171V238z"/>
						</g>
						<g>
							<path class="st8" d="M163.3,253.1h0.7v1.4h-0.7V253.1z M163.3,251.1h0.7v1.4h-0.7V251.1z M163.3,249.1h0.7v1.4h-0.7V249.1z
								 M163.3,247.1h0.7v1.4h-0.7V247.1z M163.3,245.1h0.7v1.4h-0.7V245.1z M163.3,243.1h0.7v1.4h-0.7V243.1z"/>
						</g>
						<g>
							<path class="st8" d="M155.5,253.5h0.7v1.4h-0.7V253.5z M155.5,251.5h0.7v1.4h-0.7V251.5z M155.5,249.5h0.7v1.4h-0.7V249.5z
								 M155.5,247.5h0.7v1.4h-0.7V247.5z M155.5,245.5h0.7v1.4h-0.7V245.5z M155.5,243.5h0.7v1.4h-0.7V243.5z M155.5,241.5h0.7v1.4
								h-0.7V241.5z"/>
						</g>
						<g>
							<path class="st8" d="M147.7,253.7h0.7v1.3h-0.7V253.7z M147.7,251.7h0.7v1.4h-0.7V251.7z M147.7,249.7h0.7v1.4h-0.7V249.7z
								 M147.7,247.7h0.7v1.4h-0.7V247.7z"/>
						</g>
						<g>
							<path class="st8" d="M139.9,253.8h0.7v1.2h-0.7V253.8z M139.9,251.8h0.7v1.4h-0.7V251.8z"/>
						</g>
						<g>
							<path class="st8" d="M138,250.1c0-1.2,1-2.2,2.2-2.2c1.2,0,2.2,1,2.2,2.2c0,1.2-1,2.2-2.2,2.2C139,252.3,138,251.3,138,250.1
								z M139.1,250.1c0,0.6,0.5,1.1,1.1,1.1c0.6,0,1.1-0.5,1.1-1.1c0-0.6-0.5-1.1-1.1-1.1C139.6,249,139.1,249.5,139.1,250.1z"/>
						</g>
						<g>
							
								<rect x="174.6" y="235.6" transform="matrix(0.362 -0.9322 0.9322 0.362 -110.0205 314.8257)" class="st8" width="0.7" height="4.4"/>
						</g>
						<g>
							<polygon class="st8" points="180.3,255.4 137.8,255.4 137.8,232 138.5,232 138.5,254.7 180.3,254.7 							"/>
						</g>
					</g>
					<g>
						<g>
							<g>
								
									<rect x="174.1" y="207" transform="matrix(-1 -1.224647e-16 1.224647e-16 -1 352.8655 430.4689)" class="st10" width="4.8" height="16.5"/>
							</g>
							<g>
								
									<rect x="166.8" y="210.5" transform="matrix(-1 -1.224647e-16 1.224647e-16 -1 338.4154 434.0016)" class="st10" width="4.8" height="12.9"/>
							</g>
							<g>
								
									<rect x="159.6" y="208.8" transform="matrix(-1 -1.224647e-16 1.224647e-16 -1 323.9653 432.2288)" class="st10" width="4.8" height="14.7"/>
							</g>
							<g>
								
									<rect x="152.4" y="214" transform="matrix(-1 -1.224647e-16 1.224647e-16 -1 309.5152 437.416)" class="st10" width="4.8" height="9.5"/>
							</g>
							<g>
								
									<rect x="145.2" y="216.2" transform="matrix(-1 -1.224647e-16 1.224647e-16 -1 295.0652 439.6873)" class="st10" width="4.8" height="7.2"/>
							</g>
							<g>
								
									<rect x="137.9" y="219.5" transform="matrix(-1 -1.224647e-16 1.224647e-16 -1 280.6151 442.9749)" class="st10" width="4.8" height="3.9"/>
							</g>
							<g>
								<rect x="137.1" y="223" class="st8" width="42.2" height="0.9"/>
							</g>
						</g>
					</g>
					<g>
						<g>
							<path class="st18" d="M207,237.3c-2-3.3-5.7-5.6-9.8-5.6v11.4L207,237.3z"/>
						</g>
						<g>
							<path class="st19" d="M220.9,242.3h-7.4c-0.7,0-1.2-0.6-1.2-1.2l0,0c0-0.7,0.6-1.2,1.2-1.2h7.4c0.7,0,1.2,0.6,1.2,1.2l0,0
								C222.1,241.7,221.6,242.3,220.9,242.3z"/>
						</g>
						<g>
							<path class="st20" d="M220.9,247h-7.4c-0.7,0-1.2-0.6-1.2-1.2l0,0c0-0.7,0.6-1.2,1.2-1.2h7.4c0.7,0,1.2,0.6,1.2,1.2l0,0
								C222.1,246.4,221.6,247,220.9,247z"/>
						</g>
						<g>
							<path class="st18" d="M220.9,251.7h-7.4c-0.7,0-1.2-0.6-1.2-1.2l0,0c0-0.7,0.6-1.2,1.2-1.2h7.4c0.7,0,1.2,0.6,1.2,1.2l0,0
								C222.1,251.2,221.6,251.7,220.9,251.7z"/>
						</g>
						<g>
							<path class="st20" d="M197.2,243.9h11.3c0-2.1-0.6-4.1-1.6-5.8L197.2,243.9z"/>
						</g>
						<g>
							<path class="st19" d="M196.5,233.8c-5.9,0-10.8,4.8-10.8,10.8c0,5.9,4.8,10.8,10.8,10.8c5.9,0,10.8-4.8,10.8-10.8h-10.8
								V233.8z"/>
						</g>
					</g>
					<g>
						<g>
							<path class="st8" d="M145.7,229.2h-6.5c-0.8,0-1.5-0.7-1.5-1.5l0,0c0-0.8,0.7-1.5,1.5-1.5h6.5c0.8,0,1.5,0.7,1.5,1.5l0,0
								C147.2,228.6,146.5,229.2,145.7,229.2z"/>
						</g>
						<g>
							<path class="st8" d="M156.5,229.2H150c-0.8,0-1.5-0.7-1.5-1.5l0,0c0-0.8,0.7-1.5,1.5-1.5h6.5c0.8,0,1.5,0.7,1.5,1.5l0,0
								C158,228.6,157.3,229.2,156.5,229.2z"/>
						</g>
						<g>
							<path class="st8" d="M167.4,229.2h-6.5c-0.8,0-1.5-0.7-1.5-1.5l0,0c0-0.8,0.7-1.5,1.5-1.5h6.5c0.8,0,1.5,0.7,1.5,1.5l0,0
								C168.9,228.6,168.2,229.2,167.4,229.2z"/>
						</g>
						<g>
							<path class="st8" d="M178.2,229.2h-6.5c-0.8,0-1.5-0.7-1.5-1.5l0,0c0-0.8,0.7-1.5,1.5-1.5h6.5c0.8,0,1.5,0.7,1.5,1.5l0,0
								C179.7,228.6,179.1,229.2,178.2,229.2z"/>
						</g>
					</g>
					<g>
						<g>
							<g>
								<path class="st21" d="M190.4,212.9L190.4,212.9c-1.9,0-3.4-1.5-3.4-3.4v0c0-1.9,1.5-3.4,3.4-3.4l0,0c1.9,0,3.4,1.5,3.4,3.4
									v0C193.8,211.4,192.3,212.9,190.4,212.9z"/>
							</g>
							<g>
								<path class="st8" d="M191.8,211.3c-0.1,0-0.2,0-0.3-0.1l-2.8-2.8c-0.2-0.2-0.2-0.5,0-0.7c0.2-0.2,0.5-0.2,0.7,0l2.8,2.8
									c0.2,0.2,0.2,0.5,0,0.7C192,211.3,191.9,211.3,191.8,211.3z"/>
							</g>
							<g>
								<path class="st8" d="M189,211.3c-0.1,0-0.2,0-0.3-0.1c-0.2-0.2-0.2-0.5,0-0.7l2.8-2.8c0.2-0.2,0.5-0.2,0.7,0
									c0.2,0.2,0.2,0.5,0,0.7l-2.8,2.8C189.2,211.3,189.1,211.3,189,211.3z"/>
							</g>
						</g>
						<g>
							<g>
								<path class="st21" d="M190.4,226.2L190.4,226.2c-1.9,0-3.4-1.5-3.4-3.4l0,0c0-1.9,1.5-3.4,3.4-3.4l0,0
									c1.9,0,3.4,1.5,3.4,3.4l0,0C193.8,224.7,192.3,226.2,190.4,226.2z"/>
							</g>
							<g>
								<path class="st8" d="M191.8,224.7c-0.1,0-0.2,0-0.3-0.1l-2.8-2.8c-0.2-0.2-0.2-0.5,0-0.7c0.2-0.2,0.5-0.2,0.7,0l2.8,2.8
									c0.2,0.2,0.2,0.5,0,0.7C192,224.6,191.9,224.7,191.8,224.7z"/>
							</g>
							<g>
								<path class="st8" d="M189,224.7c-0.1,0-0.2,0-0.3-0.1c-0.2-0.2-0.2-0.5,0-0.7l2.8-2.8c0.2-0.2,0.5-0.2,0.7,0
									c0.2,0.2,0.2,0.5,0,0.7l-2.8,2.8C189.2,224.6,189.1,224.7,189,224.7z"/>
							</g>
						</g>
						<g>
							<path class="st8" d="M216.4,207.9h-19.5c-0.5,0-0.9-0.4-0.9-0.9l0,0c0-0.5,0.4-0.9,0.9-0.9h19.5c0.5,0,0.9,0.4,0.9,0.9l0,0
								C217.2,207.5,216.8,207.9,216.4,207.9z"/>
						</g>
						<g>
							<path class="st8" d="M216.4,211.2h-19.5c-0.5,0-0.9-0.4-0.9-0.9l0,0c0-0.5,0.4-0.9,0.9-0.9h19.5c0.5,0,0.9,0.4,0.9,0.9l0,0
								C217.2,210.8,216.8,211.2,216.4,211.2z"/>
						</g>
						<g>
							<path class="st8" d="M216.4,214.6h-19.5c-0.5,0-0.9-0.4-0.9-0.9v0c0-0.5,0.4-0.9,0.9-0.9h19.5c0.5,0,0.9,0.4,0.9,0.9l0,0
								C217.2,214.2,216.8,214.6,216.4,214.6z"/>
						</g>
						<g>
							<path class="st8" d="M216.3,221.2h-19.5c-0.5,0-0.9-0.4-0.9-0.9l0,0c0-0.5,0.4-0.9,0.9-0.9h19.5c0.5,0,0.9,0.4,0.9,0.9l0,0
								C217.2,220.8,216.8,221.2,216.3,221.2z"/>
						</g>
						<g>
							<path class="st8" d="M216.3,224.5h-19.5c-0.5,0-0.9-0.4-0.9-0.9l0,0c0-0.5,0.4-0.9,0.9-0.9h19.5c0.5,0,0.9,0.4,0.9,0.9l0,0
								C217.2,224.1,216.8,224.5,216.3,224.5z"/>
						</g>
						<g>
							<path class="st8" d="M216.3,227.9h-19.5c-0.5,0-0.9-0.4-0.9-0.9l0,0c0-0.5,0.4-0.9,0.9-0.9h19.5c0.5,0,0.9,0.4,0.9,0.9l0,0
								C217.2,227.5,216.8,227.9,216.3,227.9z"/>
						</g>
					</g>
				</g>
			</g>
			<g>
				<g>
					
						<rect x="284.3" y="217" transform="matrix(0.9331 -0.3596 0.3596 0.9331 -58.4153 125.8387)" class="st14" width="49.6" height="5.9"/>
					
						<rect x="309.7" y="216" transform="matrix(-0.9331 0.3596 -0.3596 -0.9331 681.316 311.1486)" class="st15" width="4" height="5.9"/>
					
						<rect x="297.3" y="221" transform="matrix(-0.9331 0.3596 -0.3596 -0.9331 658.1186 325.4255)" class="st15" width="3" height="5.9"/>
					
						<rect x="323.8" y="209.7" transform="matrix(-0.9331 0.3596 -0.3596 -0.9331 710.7817 293.0159)" class="st22" width="8.7" height="5.9"/>
					
						<rect x="284.2" y="217" transform="matrix(0.9331 -0.3596 0.3596 0.9331 -58.319 125.7795)" class="st15" width="49.6" height="5.3"/>
				</g>
				<g>
					
						<rect x="282.2" y="223.9" transform="matrix(0.9331 -0.3596 0.3596 0.9331 -61.0346 125.5486)" class="st14" width="49.6" height="5.9"/>
					
						<rect x="307.6" y="222.9" transform="matrix(-0.9331 0.3595 -0.3595 -0.9331 679.7557 325.2327)" class="st15" width="4" height="5.9"/>
					
						<rect x="295.2" y="227.9" transform="matrix(-0.9331 0.3596 -0.3596 -0.9331 656.559 339.5069)" class="st15" width="3" height="5.9"/>
					
						<rect x="321.7" y="216.6" transform="matrix(-0.9331 0.3596 -0.3596 -0.9331 709.222 307.0973)" class="st22" width="8.7" height="5.9"/>
					
						<rect x="282.1" y="223.9" transform="matrix(0.9331 -0.3596 0.3596 0.9331 -60.9382 125.4894)" class="st15" width="49.6" height="5.3"/>
				</g>
				<g>
					
						<rect x="278.1" y="213.1" transform="matrix(0.9331 -0.3596 0.3596 0.9331 -57.4341 123.3337)" class="st14" width="49.6" height="5.9"/>
					
						<rect x="303.5" y="212.1" transform="matrix(-0.9331 0.3596 -0.3596 -0.9331 667.8411 305.8727)" class="st15" width="4" height="5.9"/>
					
						<rect x="291" y="217.1" transform="matrix(-0.9331 0.3596 -0.3596 -0.9331 644.644 320.1483)" class="st15" width="3" height="5.9"/>
					
						<rect x="317.5" y="205.8" transform="matrix(-0.9331 0.3596 -0.3596 -0.9331 697.3072 287.7387)" class="st22" width="8.7" height="5.9"/>
					
						<rect x="277.9" y="213.1" transform="matrix(0.9331 -0.3596 0.3596 0.9331 -57.3376 123.2738)" class="st15" width="49.6" height="5.3"/>
				</g>
				<g>
					
						<rect x="283.1" y="205.1" transform="matrix(0.9331 -0.3596 0.3596 0.9331 -54.2224 124.6219)" class="st14" width="49.6" height="5.9"/>
					
						<rect x="308.6" y="204.1" transform="matrix(-0.9331 0.3595 -0.3595 -0.9331 674.7668 288.6064)" class="st15" width="4" height="5.9"/>
					
						<rect x="296.1" y="209.1" transform="matrix(-0.9331 0.3596 -0.3596 -0.9331 651.57 302.8809)" class="st15" width="3" height="5.9"/>
					
						<rect x="322.6" y="197.8" transform="matrix(-0.9331 0.3596 -0.3596 -0.9331 704.2332 270.4712)" class="st22" width="8.7" height="5.9"/>
					
						<rect x="283" y="205.2" transform="matrix(0.9331 -0.3595 0.3595 0.9331 -54.1256 124.5606)" class="st15" width="49.6" height="5.3"/>
				</g>
				<g>
					
						<rect x="272.6" y="196.6" transform="matrix(0.9331 -0.3596 0.3596 0.9331 -51.8568 120.2655)" class="st14" width="49.6" height="5.9"/>
					
						<rect x="298" y="195.6" transform="matrix(-0.9331 0.3595 -0.3595 -0.9331 651.3513 275.8887)" class="st15" width="4" height="5.9"/>
					
						<rect x="285.6" y="200.6" transform="matrix(-0.9331 0.3596 -0.3596 -0.9331 628.1545 290.163)" class="st15" width="3" height="5.9"/>
					
						<rect x="312.1" y="189.3" transform="matrix(-0.9331 0.3596 -0.3596 -0.9331 680.8174 257.7542)" class="st22" width="8.7" height="5.9"/>
					
						<rect x="272.5" y="196.6" transform="matrix(0.9331 -0.3595 0.3595 0.9331 -51.7602 120.2049)" class="st15" width="49.6" height="5.3"/>
				</g>
				<g>
					
						<rect x="276.5" y="201.4" transform="matrix(0.9331 -0.3595 0.3595 0.9331 -53.3164 121.9945)" class="st14" width="49.6" height="5.9"/>
					
						<rect x="302" y="200.4" transform="matrix(-0.9331 0.3596 -0.3596 -0.9331 660.6502 283.7353)" class="st15" width="4" height="5.9"/>
					
						<rect x="289.5" y="205.3" transform="matrix(-0.9331 0.3596 -0.3596 -0.9331 637.453 298.0116)" class="st15" width="3" height="5.9"/>
					
						<rect x="316" y="194" transform="matrix(-0.9331 0.3596 -0.3596 -0.9331 690.1161 265.6019)" class="st22" width="8.7" height="5.9"/>
					
						<rect x="276.4" y="201.4" transform="matrix(0.9331 -0.3595 0.3595 0.9331 -53.2198 121.9344)" class="st15" width="49.6" height="5.3"/>
				</g>
				<g>
					
						<rect x="275.6" y="189.1" transform="matrix(0.9331 -0.3596 0.3596 0.9331 -48.9789 120.8414)" class="st14" width="49.6" height="5.9"/>
					
						<rect x="301" y="188.1" transform="matrix(-0.9331 0.3596 -0.3596 -0.9331 654.4452 260.4146)" class="st15" width="4" height="5.9"/>
					
						<rect x="288.6" y="193.1" transform="matrix(-0.9331 0.3595 -0.3595 -0.9331 631.2476 274.6924)" class="st15" width="3" height="5.9"/>
					
						<rect x="315.1" y="181.8" transform="matrix(-0.9331 0.3596 -0.3596 -0.9331 683.9114 242.28)" class="st22" width="8.7" height="5.9"/>
					
						<rect x="275.5" y="189.2" transform="matrix(0.9331 -0.3596 0.3596 0.9331 -48.8824 120.7817)" class="st15" width="49.6" height="5.3"/>
				</g>
				<g>
					
						<rect x="272.1" y="184.2" transform="matrix(0.9331 -0.3595 0.3595 0.9331 -47.4254 119.2405)" class="st14" width="49.6" height="5.9"/>
					
						<rect x="297.5" y="183.2" transform="matrix(-0.9331 0.3595 -0.3595 -0.9331 645.8466 252.0645)" class="st15" width="4" height="5.9"/>
					
						<rect x="285.1" y="188.1" transform="matrix(-0.9331 0.3596 -0.3596 -0.9331 622.6496 266.3398)" class="st15" width="3" height="5.9"/>
					
						<rect x="311.6" y="176.8" transform="matrix(-0.9331 0.3596 -0.3596 -0.9331 675.3129 233.9293)" class="st22" width="8.7" height="5.9"/>
					
						<rect x="271.9" y="184.2" transform="matrix(0.9331 -0.3595 0.3595 0.9331 -47.3291 119.1812)" class="st15" width="49.6" height="5.3"/>
				</g>
				<g>
					
						<rect x="267" y="180.2" transform="matrix(0.9331 -0.3595 0.3595 0.9331 -46.3163 117.1633)" class="st14" width="49.6" height="5.9"/>
					
						<rect x="292.5" y="179.1" transform="matrix(-0.9331 0.3596 -0.3596 -0.9331 634.6808 246.1009)" class="st15" width="4" height="5.9"/>
					
						<rect x="280" y="184.1" transform="matrix(-0.9331 0.3596 -0.3596 -0.9331 611.4838 260.3761)" class="st15" width="3" height="5.9"/>
					
						<rect x="306.5" y="172.8" transform="matrix(-0.9331 0.3596 -0.3596 -0.9331 664.1468 227.9673)" class="st22" width="8.7" height="5.9"/>
					
						<rect x="266.9" y="180.2" transform="matrix(0.9331 -0.3595 0.3595 0.9331 -46.22 117.1043)" class="st15" width="49.6" height="5.3"/>
				</g>
				<g>
					
						<rect x="268.4" y="173.3" transform="matrix(0.9331 -0.3595 0.3595 0.9331 -43.765 117.1874)" class="st14" width="49.6" height="5.9"/>
					
						<rect x="293.8" y="172.3" transform="matrix(-0.9331 0.3595 -0.3595 -0.9331 634.804 232.3849)" class="st15" width="4" height="5.9"/>
					
						<rect x="281.4" y="177.3" transform="matrix(-0.9331 0.3596 -0.3596 -0.9331 611.6072 246.6588)" class="st15" width="3" height="5.9"/>
					
						<rect x="307.9" y="166" transform="matrix(-0.9331 0.3595 -0.3595 -0.9331 664.2702 214.2502)" class="st22" width="8.7" height="5.9"/>
					
						<rect x="268.3" y="173.3" transform="matrix(0.9331 -0.3596 0.3596 0.9331 -43.6687 117.1286)" class="st15" width="49.6" height="5.3"/>
				</g>
				<g>
					
						<ellipse transform="matrix(0.5127 -0.8586 0.8586 0.5127 -13.6375 372.5388)" class="st14" cx="321.4" cy="198.3" rx="24.4" ry="24.4"/>
					<path class="st15" d="M301.8,205.8c1.6,4.2,4.5,7.6,8,10c0.5,0.3,1,0.6,1.5,0.9c1,0.6,2.1,1,3.2,1.4c0.5,0.2,1,0.3,1.6,0.5
						c1,0.3,2.1,0.5,3.2,0.6c0.5,0,1,0.1,1.5,0.1c2.1,0.1,4.1-0.2,6.2-0.8c0.5-0.1,1.1-0.3,1.6-0.5c0.1,0,0.2-0.1,0.3-0.1
						c10.8-4.2,16.2-16.3,12-27.1c-1.4-3.7-3.8-6.8-6.7-9c-0.4-0.3-0.9-0.7-1.4-1c-1.8-1.1-3.7-2-5.7-2.6c-0.5-0.1-1-0.3-1.5-0.4
						c-1.1-0.2-2.1-0.4-3.2-0.4c-0.5,0-1.1,0-1.6,0c-1.2,0-2.3,0.2-3.5,0.4c-0.6,0.1-1.1,0.3-1.7,0.4c-0.6,0.2-1.2,0.4-1.8,0.6
						C303,182.9,297.6,195,301.8,205.8z"/>
					<g>
						<g>
							
								<rect x="320.3" y="181.2" transform="matrix(0.9251 -0.3798 0.3798 0.9251 -51.2433 136.8711)" class="st14" width="2" height="34.1"/>
						</g>
						<g>
							<path class="st14" d="M326.3,210.9c0,0,0.1,0,0.1-0.1c3.6-1.5,4.1-5.9,4.1-6l-2-0.2c0,0-0.4,3.4-2.9,4.4
								c-1.2,0.5-2.3,0.5-3.3-0.1c-1-0.6-1.9-1.7-2.5-3.2c-1.1-2.6-0.5-4.4,2.1-6.6c2.9-2.5,3.6-5.4,2.3-8.7c-0.7-1.7-1.8-3.1-3.1-4
								c-1.5-1-3.3-1.2-5-0.5c-3.4,1.4-4,4.5-4,4.6l2,0.4c0-0.1,0.5-2.1,2.8-3.1c1.1-0.4,2.1-0.3,3.1,0.4c1,0.6,1.8,1.8,2.4,3.1
								c1,2.5,0.5,4.6-1.7,6.5c-2.3,2-4.4,4.6-2.7,8.9c0.8,1.9,2,3.4,3.4,4.2C322.9,211.4,324.5,211.5,326.3,210.9z"/>
						</g>
					</g>
					<g>
						<defs>
							
								<ellipse id="SVGID_00000169537180778625028180000015397091318786504322_" transform="matrix(0.5127 -0.8586 0.8586 0.5127 -13.6375 372.5388)" cx="321.4" cy="198.3" rx="24.4" ry="24.4"/>
						</defs>
						<clipPath id="SVGID_00000060732875657233658210000013076933629951625659_">
							<use xlink:href="#SVGID_00000169537180778625028180000015397091318786504322_"  style="overflow:visible;"/>
						</clipPath>
						<g style="clip-path:url(#SVGID_00000060732875657233658210000013076933629951625659_);">
							<path class="st15" d="M327.2,178.1c2,0.6,3.9,1.4,5.7,2.6c0.5,0.3,0.9,0.6,1.4,1l1.9-12.4l-7.4-1.1L327.2,178.1z"/>
							<path class="st15" d="M319.1,230.9l7.4,1.1l2.2-14.1c-0.5,0.2-1.1,0.4-1.6,0.5c-2.1,0.6-4.1,0.8-6.2,0.8L319.1,230.9z"/>
							<path class="st17" d="M319.3,219.2c2.5,0.3,5.1,0,7.7-0.7l5.8-37.8c-2.2-1.4-4.6-2.4-7.1-3L319.3,219.2z"/>
							<path class="st15" d="M317.3,177.7c1.2-0.2,2.4-0.4,3.5-0.4c0.5,0,1.1,0,1.6,0l1.4-9.4l-5-0.8L317.3,177.7z"/>
							<path class="st15" d="M309.3,229.9l5,0.8l1.9-12.1c-0.5-0.1-1.1-0.3-1.6-0.5c-1.1-0.4-2.2-0.9-3.2-1.4L309.3,229.9z"/>
							<path class="st17" d="M309.8,215.8c1.5,1,3.1,1.8,4.7,2.3l6.3-40.8c-1.7,0-3.5,0.3-5.2,0.8L309.8,215.8z"/>
						</g>
					</g>
				</g>
			</g>
			<g>
				<path class="st8" d="M219.5,395.8l-59.2,29.7c-4.1,2-9,0.4-11-3.7l-43.8-87.3c-2-4.1-0.4-9,3.7-11l59.2-29.7c4.1-2,9-0.4,11,3.7
					l43.8,87.3C225.2,388.8,223.5,393.8,219.5,395.8z"/>
				<path class="st4" d="M215.6,397.8l-59.2,29.7c-4.1,2-9,0.4-11-3.7l-43.8-87.3c-2-4.1-0.4-9,3.7-11l59.2-29.7c4.1-2,9-0.4,11,3.7
					l43.8,87.3C221.3,390.8,219.6,395.7,215.6,397.8z"/>
				
					<rect x="105.5" y="317.1" transform="matrix(0.8937 -0.4488 0.4488 0.8937 -131.2721 98.3319)" class="st24" width="72.7" height="18.1"/>
				<g>
					<path class="st25" d="M128.4,355.6l-7.6,3.8c-1.3,0.7-2.9,0.1-3.6-1.2l0,0c-0.7-1.3-0.1-2.9,1.2-3.6l7.6-3.8
						c1.3-0.7,2.9-0.1,3.6,1.2l0,0C130.3,353.3,129.7,354.9,128.4,355.6z"/>
					<path class="st25" d="M141.6,349l-7.6,3.8c-1.3,0.7-2.9,0.1-3.6-1.2l0,0c-0.7-1.3-0.1-2.9,1.2-3.6l7.6-3.8
						c1.3-0.7,2.9-0.1,3.6,1.2v0C143.4,346.7,142.9,348.3,141.6,349z"/>
					<path class="st25" d="M154.7,342.4l-7.6,3.8c-1.3,0.7-2.9,0.1-3.6-1.2l0,0c-0.7-1.3-0.1-2.9,1.2-3.6l7.6-3.8
						c1.3-0.7,2.9-0.1,3.6,1.2l0,0C156.6,340.1,156,341.7,154.7,342.4z"/>
					<path class="st25" d="M167.9,335.8l-7.6,3.8c-1.3,0.7-2.9,0.1-3.6-1.2v0c-0.7-1.3-0.1-2.9,1.2-3.6l7.6-3.8
						c1.3-0.7,2.9-0.1,3.6,1.2l0,0C169.7,333.5,169.2,335.1,167.9,335.8z"/>
					<path class="st25" d="M181,329.2l-7.6,3.8c-1.3,0.7-2.9,0.1-3.6-1.2l0,0c-0.7-1.3-0.1-2.9,1.2-3.6l7.6-3.8
						c1.3-0.7,2.9-0.1,3.6,1.2l0,0C182.9,326.9,182.3,328.5,181,329.2z"/>
				</g>
				<g>
					
						<rect x="122.2" y="359.6" transform="matrix(0.8937 -0.4488 0.4488 0.8937 -150.7569 96.9172)" class="st24" width="13.8" height="13.8"/>
					
						<rect x="135.1" y="353.2" transform="matrix(0.8937 -0.4488 0.4488 0.8937 -146.4792 102.0159)" class="st24" width="13.8" height="13.8"/>
					<polygon class="st24" points="164.7,356.5 152.4,362.6 146.3,350.3 156.9,345 158.5,344.1 163.8,354.7 					"/>
					<path class="st26" d="M176.2,350.7l-8.9,4.5c-1,0.5-2.1,0.1-2.6-0.9l-4.5-8.9c-0.5-1-0.1-2.1,0.9-2.6l8.9-4.5
						c1-0.5,2.1-0.1,2.6,0.9l4.5,8.9C177.5,349.1,177.1,350.2,176.2,350.7z"/>
					<path class="st26" d="M189.3,344.1l-8.9,4.5c-1,0.5-2.1,0.1-2.6-0.9l-4.5-8.9c-0.5-1-0.1-2.1,0.9-2.6l8.9-4.5
						c1-0.5,2.1-0.1,2.6,0.9l4.5,8.9C190.7,342.5,190.3,343.6,189.3,344.1z"/>
					
						<rect x="129.9" y="374.9" transform="matrix(0.8937 -0.4487 0.4487 0.8937 -156.7806 101.9708)" class="st24" width="13.8" height="13.8"/>
					
						<rect x="143" y="368.3" transform="matrix(0.8937 -0.4487 0.4487 0.8937 -152.4186 107.1697)" class="st24" width="13.8" height="13.8"/>
					
						<rect x="156.2" y="361.7" transform="matrix(0.8937 -0.4488 0.4488 0.8937 -148.0575 112.3697)" class="st24" width="13.8" height="13.8"/>
					<path class="st26" d="M183.8,365.9l-8.9,4.5c-1,0.5-2.1,0.1-2.6-0.9l-4.5-8.9c-0.5-1-0.1-2.1,0.9-2.6l8.9-4.5
						c1-0.5,2.1-0.1,2.6,0.9l4.5,8.9C185.2,364.3,184.8,365.5,183.8,365.9z"/>
					<path class="st26" d="M197,359.3l-8.9,4.5c-1,0.5-2.1,0.1-2.6-0.9l-4.5-8.9c-0.5-1-0.1-2.1,0.9-2.6l8.9-4.5
						c1-0.5,2.1-0.1,2.6,0.9l4.5,8.9C198.3,357.7,197.9,358.9,197,359.3z"/>
					
						<rect x="137.8" y="390.7" transform="matrix(0.8937 -0.4488 0.4488 0.8937 -163.0231 107.2081)" class="st24" width="13.8" height="13.8"/>
					
						<rect x="150.9" y="384.1" transform="matrix(0.8937 -0.4487 0.4487 0.8937 -158.6609 112.4068)" class="st24" width="13.8" height="13.8"/>
					
						<rect x="164.1" y="377.5" transform="matrix(0.8937 -0.4487 0.4487 0.8937 -154.299 117.6059)" class="st24" width="13.8" height="13.8"/>
					<path class="st26" d="M191.8,381.7l-8.9,4.5c-1,0.5-2.1,0.1-2.6-0.9l-4.5-8.9c-0.5-1-0.1-2.1,0.9-2.6l8.9-4.5
						c1-0.5,2.1-0.1,2.6,0.9l4.5,8.9C193.1,380.1,192.7,381.2,191.8,381.7z"/>
					<path class="st26" d="M204.9,375.1l-8.9,4.5c-1,0.5-2.1,0.1-2.6-0.9l-4.5-8.9c-0.5-1-0.1-2.1,0.9-2.6l8.9-4.5
						c1-0.5,2.1-0.1,2.6,0.9l4.5,8.9C206.3,373.5,205.9,374.6,204.9,375.1z"/>
					
						<rect x="145.8" y="406.4" transform="matrix(0.8937 -0.4488 0.4488 0.8937 -169.2265 112.4571)" class="st24" width="13.8" height="13.8"/>
					
						<rect x="158.8" y="399.8" transform="matrix(0.8937 -0.4487 0.4487 0.8937 -164.86 117.6076)" class="st24" width="13.8" height="13.8"/>
					
						<rect x="172" y="393.1" transform="matrix(0.8937 -0.4487 0.4487 0.8937 -160.4979 122.8065)" class="st24" width="13.8" height="13.8"/>
					<path class="st26" d="M199.6,397.4l-8.9,4.5c-1,0.5-2.1,0.1-2.6-0.9l-4.5-8.9c-0.5-1-0.1-2.1,0.9-2.6l8.9-4.5
						c1-0.5,2.1-0.1,2.6,0.9l4.5,8.9C201,395.8,200.6,396.9,199.6,397.4z"/>
					<path class="st26" d="M212.8,390.8l-8.9,4.5c-1,0.5-2.1,0.1-2.6-0.9l-4.5-8.9c-0.5-1-0.1-2.1,0.9-2.6l8.9-4.5
						c1-0.5,2.1-0.1,2.6,0.9l4.5,8.9C214.1,389.2,213.7,390.3,212.8,390.8z"/>
					<g>
						<path class="st27" d="M128.1,364.6l-1.1,0.5l-0.4-0.7c0.3-0.1,0.5-0.3,0.7-0.4c0.2-0.1,0.3-0.3,0.3-0.5c0-0.2,0.1-0.4,0-0.6
							l0.7-0.3l3.3,6.6l-1,0.5L128.1,364.6z"/>
					</g>
					<g>
						<path class="st27" d="M141.7,363.2c-0.2-0.5-0.4-0.9-0.4-1.3c0-0.4,0.1-0.9,0.2-1.5c0.2-0.6,0.3-1.1,0.3-1.4
							c0-0.4-0.1-0.7-0.2-1c-0.1-0.3-0.3-0.5-0.4-0.5c-0.1-0.1-0.3-0.1-0.5,0c-0.4,0.2-0.4,0.5-0.2,0.9l0.4,0.7l-1,0.5l-0.3-0.6
							c-0.3-0.5-0.3-1-0.2-1.4c0.1-0.4,0.4-0.8,0.9-1c0.5-0.3,1-0.3,1.4-0.1c0.4,0.2,0.7,0.5,1,1c0.2,0.4,0.3,0.8,0.3,1.3
							c0,0.5-0.1,1.1-0.3,1.8c-0.1,0.5-0.2,0.8-0.2,1.1c0,0.3,0.1,0.5,0.2,0.7l0.1,0.1l2-1l0.5,0.9l-3,1.5L141.7,363.2z"/>
					</g>
					<g>
						<path class="st27" d="M155.7,356.7c-0.4-0.2-0.7-0.5-1-1l-0.3-0.5l1-0.5l0.3,0.6c0.2,0.4,0.5,0.6,0.9,0.4
							c0.2-0.1,0.3-0.2,0.3-0.4c0-0.2,0-0.4-0.2-0.6l-0.3-0.5c-0.2-0.3-0.3-0.5-0.5-0.6c-0.2-0.1-0.4-0.1-0.6,0.1l-0.3,0.2l-0.5-0.9
							l0.4-0.2c0.2-0.1,0.3-0.2,0.4-0.4c0-0.2,0-0.4-0.1-0.6l-0.2-0.5c-0.1-0.2-0.2-0.4-0.4-0.4c-0.1-0.1-0.3,0-0.5,0
							c-0.3,0.2-0.4,0.5-0.2,0.9l0.2,0.4l-1,0.5l-0.2-0.3c-0.3-0.5-0.3-1-0.2-1.4c0.1-0.4,0.4-0.7,0.9-1c0.5-0.2,0.9-0.3,1.3-0.1
							c0.4,0.2,0.7,0.5,1,1l0.1,0.2c0.2,0.4,0.3,0.7,0.3,1c0,0.3-0.1,0.5-0.3,0.7l0,0c0.3,0,0.6,0,0.8,0.2c0.2,0.2,0.4,0.4,0.6,0.8
							l0.3,0.6c0.3,0.5,0.3,1,0.2,1.4c-0.1,0.4-0.4,0.7-0.9,1C156.5,356.8,156.1,356.9,155.7,356.7z"/>
					</g>
					<g>
						<path class="st27" d="M138,383.7l-2,1l-0.5-0.9l-0.4-5.4l1.1-0.6l2.2,4.4l0.5-0.2l0.5,0.9l-0.5,0.2l0.6,1.2l-1,0.5L138,383.7z
							 M137.6,382.8l-1.3-2.6l0,0l0.3,3.1L137.6,382.8z"/>
					</g>
					<g>
						<path class="st27" d="M150,378.8c-0.4-0.2-0.7-0.5-1-1l-0.3-0.5l1-0.5l0.3,0.6c0.2,0.4,0.5,0.5,0.9,0.4
							c0.4-0.2,0.4-0.5,0.2-0.9l-0.7-1.5c-0.2-0.4-0.5-0.6-0.9-0.4c-0.4,0.2-0.4,0.5-0.2,0.9l0,0.1l-1,0.5l-1.7-3.8l2.7-1.4l0.5,0.9
							l-1.8,0.9l0.7,1.6l0,0c0-0.4,0.3-0.7,0.7-0.9c0.4-0.2,0.7-0.2,1,0c0.3,0.2,0.6,0.5,0.9,1l0.7,1.5c0.3,0.5,0.3,1,0.2,1.4
							c-0.1,0.4-0.4,0.8-0.9,1C150.9,378.9,150.4,379,150,378.8z"/>
					</g>
					<g>
						<path class="st27" d="M163.5,372.1c-0.4-0.2-0.8-0.5-1-1l-1.7-3.4c-0.6-1.1-0.3-2,0.7-2.5c0.5-0.3,1-0.3,1.4-0.1
							c0.4,0.2,0.7,0.5,1,1l0.1,0.1l-1,0.5l-0.1-0.2c-0.2-0.4-0.5-0.6-0.9-0.4c-0.2,0.1-0.3,0.2-0.3,0.4c0,0.2,0,0.4,0.2,0.7
							l0.6,1.3l0,0c0-0.5,0.2-0.8,0.7-1c0.4-0.2,0.7-0.2,1,0c0.3,0.2,0.6,0.5,0.9,1l0.6,1.2c0.3,0.5,0.3,1,0.2,1.4
							c-0.1,0.4-0.4,0.8-0.9,1C164.3,372.2,163.9,372.3,163.5,372.1z M164.6,370.1L164,369c-0.2-0.4-0.5-0.6-0.9-0.4
							c-0.4,0.2-0.4,0.5-0.2,0.9l0.6,1.2c0.2,0.4,0.5,0.5,0.9,0.4C164.7,370.9,164.8,370.6,164.6,370.1z"/>
					</g>
					<g>
						<path class="st27" d="M144.1,395.1l-2.1,1l-0.5-0.9l3.1-1.6l0.5,0.9l1.2,6.5l-1.1,0.5L144.1,395.1z"/>
					</g>
					<g>
						<path class="st27" d="M157.9,394.8c-0.4-0.1-0.8-0.5-1-1l-0.3-0.6c-0.2-0.3-0.2-0.6-0.3-0.9c0-0.3,0.1-0.5,0.3-0.8l0,0
							c-0.3,0-0.5-0.1-0.7-0.3c-0.2-0.2-0.4-0.4-0.6-0.7l-0.1-0.3c-0.3-0.5-0.3-1-0.2-1.4c0.1-0.4,0.5-0.8,1-1
							c0.5-0.3,1-0.3,1.4-0.2c0.4,0.1,0.8,0.5,1,1l0.1,0.3c0.3,0.6,0.3,1.2,0,1.6l0,0c0.3,0,0.6,0.1,0.8,0.3
							c0.2,0.2,0.4,0.4,0.6,0.7l0.3,0.6c0.3,0.5,0.3,1,0.2,1.4c-0.1,0.4-0.5,0.8-1,1C158.8,394.8,158.3,394.9,157.9,394.8z
							 M159.1,392.6l-0.3-0.6c-0.2-0.5-0.6-0.6-1-0.5c-0.4,0.2-0.5,0.5-0.2,1l0.3,0.6c0.2,0.5,0.6,0.6,1,0.5
							C159.3,393.4,159.3,393.1,159.1,392.6z M157.5,389.6l-0.3-0.5c-0.2-0.4-0.5-0.6-0.9-0.4c-0.4,0.2-0.4,0.5-0.2,0.9l0.3,0.5
							c0.2,0.4,0.5,0.6,0.9,0.4C157.7,390.4,157.8,390.1,157.5,389.6z"/>
					</g>
					<g>
						<path class="st27" d="M171.4,388.1c-0.4-0.2-0.7-0.5-1-1l-0.1-0.1l1-0.5l0.1,0.2c0.2,0.4,0.5,0.6,0.9,0.4
							c0.2-0.1,0.3-0.2,0.3-0.4c0-0.2,0-0.4-0.2-0.7l-0.6-1.3l0,0c0,0.5-0.2,0.8-0.7,1c-0.4,0.2-0.7,0.2-1,0c-0.3-0.2-0.6-0.5-0.9-1
							l-0.6-1.2c-0.3-0.5-0.3-1-0.2-1.4c0.1-0.4,0.4-0.8,0.9-1c0.5-0.3,1-0.3,1.4-0.2c0.4,0.2,0.8,0.5,1,1l1.7,3.4
							c0.6,1.1,0.3,2-0.7,2.5C172.3,388.2,171.8,388.2,171.4,388.1z M171.3,383.6l-0.6-1.2c-0.2-0.4-0.5-0.5-0.9-0.4
							c-0.4,0.2-0.4,0.5-0.2,0.9l0.6,1.2c0.2,0.4,0.5,0.6,0.9,0.4C171.4,384.4,171.5,384,171.3,383.6z"/>
					</g>
					<g>
						<path class="st27" d="M152.9,416.8c-0.4-0.2-0.8-0.5-1-1l-1.7-3.5c-0.3-0.5-0.3-1-0.2-1.4c0.1-0.4,0.4-0.8,0.9-1
							c0.5-0.3,1-0.3,1.4-0.2c0.4,0.2,0.8,0.5,1,1l1.7,3.5c0.3,0.5,0.3,1,0.2,1.4c-0.1,0.4-0.4,0.8-0.9,1
							C153.7,416.9,153.3,416.9,152.9,416.8z M154,414.7l-1.8-3.6c-0.2-0.4-0.5-0.6-0.9-0.4c-0.4,0.2-0.4,0.5-0.2,0.9l1.8,3.6
							c0.2,0.4,0.5,0.6,0.9,0.4C154.1,415.5,154.2,415.2,154,414.7z"/>
					</g>
					<g>
						<path class="st27" d="M166.4,409.1l1-0.5l0.5,1l-1,0.5L166.4,409.1z"/>
					</g>
					<g>
						<path class="st27" d="M176.8,399.7l3.1-1.5l0.4,0.7l-3.1,1.5L176.8,399.7z M177.6,401.2l3.1-1.5l0.4,0.7l-3.1,1.5L177.6,401.2
							z"/>
					</g>
				</g>
				<g>
					<defs>
						
							<rect id="SVGID_00000166646702130899445950000016715995079194359968_" x="105.5" y="317.1" transform="matrix(0.8937 -0.4488 0.4488 0.8937 -131.2724 98.3322)" width="72.7" height="18.1"/>
					</defs>
					<clipPath id="SVGID_00000123427760120954027330000011992898178888066707_">
						<use xlink:href="#SVGID_00000166646702130899445950000016715995079194359968_"  style="overflow:visible;"/>
					</clipPath>
					<g style="clip-path:url(#SVGID_00000123427760120954027330000011992898178888066707_);">
						<path class="st27" d="M140.2,327.6l-1.6-3.2l0.2-0.7l1.4,0.5l1.2,2.3l-0.5,1.4L140.2,327.6z M142.2,331.7l-1.6-3.2l0.2-0.7
							l1.4,0.5l1.2,2.3l-0.5,1.4L142.2,331.7z M140.3,323.8l-1.4-0.5l0.2-0.7l3.2-1.6l0.7,0.2l-0.5,1.4L140.3,323.8z M143.9,332.3
							l-0.7-0.2l0.5-1.4l2.3-1.2l1.4,0.5l-0.2,0.7L143.9,332.3z M144,325l-1.2-2.3l0.5-1.4l0.7,0.2l1.6,3.2l-0.2,0.7L144,325z
							 M146.1,329.2l-1.2-2.3l0.5-1.4l0.7,0.2l1.6,3.2l-0.2,0.7L146.1,329.2z"/>
						<path class="st27" d="M151.9,328.3l-1-0.3l0.3-1l0.5-0.2l1,0.3l-0.3,1L151.9,328.3z"/>
						<path class="st27" d="M153.3,321l-1.6-3.2l0.2-0.7l1.4,0.5l1.2,2.3l-0.5,1.4L153.3,321z M155.4,325.1l-1.6-3.2l0.2-0.7
							l1.4,0.5l1.2,2.3l-0.5,1.4L155.4,325.1z M153.4,317.2l-1.4-0.5l0.2-0.7l3.2-1.6l0.7,0.2l-0.5,1.4L153.4,317.2z M157.1,325.7
							l-0.7-0.2l0.5-1.4l2.3-1.2l1.4,0.5l-0.2,0.7L157.1,325.7z M157.2,318.4l-1.2-2.3l0.5-1.4l0.7,0.2l1.6,3.2l-0.2,0.7
							L157.2,318.4z M159.3,322.5l-1.2-2.3l0.5-1.4l0.7,0.2l1.6,3.2l-0.2,0.7L159.3,322.5z"/>
						<path class="st27" d="M159.9,317.7l-1.6-3.2l0.2-0.7l1.4,0.5l1.2,2.3l-0.5,1.4L159.9,317.7z M162,321.8l-1.6-3.2l0.2-0.7
							l1.4,0.5l1.2,2.3l-0.5,1.4L162,321.8z M160,313.9l-1.4-0.5l0.2-0.7l3.2-1.6l0.7,0.2l-0.5,1.4L160,313.9z M163.7,322.3
							l-0.7-0.2l0.5-1.4l2.3-1.2l1.4,0.5l-0.2,0.7L163.7,322.3z M163.8,315.1l-1.2-2.3l0.5-1.4l0.7,0.2l1.6,3.2l-0.2,0.7
							L163.8,315.1z M165.9,319.2l-1.2-2.3l0.5-1.4l0.7,0.2l1.6,3.2l-0.2,0.7L165.9,319.2z"/>
						<path class="st27" d="M166.5,314.3l-1.6-3.2l0.2-0.7l1.4,0.5l1.2,2.3l-0.5,1.4L166.5,314.3z M166.6,310.6l-1.4-0.5l0.2-0.7
							l3.2-1.6l0.7,0.2l-0.5,1.4L166.6,310.6z M170.3,319l-0.7-0.2l0.5-1.4l2.3-1.2l1.4,0.5l-0.2,0.7L170.3,319z M168.6,314.7
							l-1-0.3l0.3-1l2.3-1.2l1,0.3l-0.3,1L168.6,314.7z M172.4,315.9l-1.2-2.3l0.5-1.4l0.7,0.2l1.6,3.2l-0.2,0.7L172.4,315.9z"/>
					</g>
					<g style="clip-path:url(#SVGID_00000123427760120954027330000011992898178888066707_);">
						<polygon class="st17" points="125.6,346.2 120.2,348.9 104.6,333 110,330.3 						"/>
						<polygon class="st17" points="128.6,344.6 127,345.4 111.4,329.6 113,328.8 						"/>
						<polygon class="st17" points="141.4,338.2 136,340.9 120.4,325.1 125.8,322.3 						"/>
						<path class="st17" d="M142.9,335l0.1,0.1c0.4,0.7,0.3,1.6-0.2,2.2l-15.5-15.7l1.6-0.8L142.9,335z"/>
						<polygon class="st17" points="160.8,328.5 155.4,331.2 139.8,315.3 145.2,312.6 						"/>
						<polygon class="st17" points="163.8,326.9 162.2,327.8 146.6,311.9 148.2,311.1 						"/>
						<polygon class="st17" points="176.6,320.5 171.2,323.2 155.6,307.4 161,304.7 						"/>
						<path class="st17" d="M178.1,317.3l0.1,0.1c0.4,0.7,0.3,1.6-0.2,2.2l-15.5-15.7l1.6-0.8L178.1,317.3z"/>
					</g>
				</g>
				<g>
					<defs>
						<path id="SVGID_00000138562525094779391790000013173922884452222367_" d="M215.6,397.8l-59.2,29.7c-4.1,2-9,0.4-11-3.7
							l-43.8-87.3c-2-4.1-0.4-9,3.7-11l59.2-29.7c4.1-2,9-0.4,11,3.7l43.8,87.3C221.3,390.8,219.6,395.7,215.6,397.8z"/>
					</defs>
					<clipPath id="SVGID_00000054225673706179339560000013304057249648975778_">
						<use xlink:href="#SVGID_00000138562525094779391790000013173922884452222367_"  style="overflow:visible;"/>
					</clipPath>
				</g>
			</g>
		</g>
	</g>
</g>
</svg>
